<?xml version="1.0" standalone="no"?>
<!DOCTYPE svg PUBLIC "-//W3C//DTD SVG 1.1//EN" "http://www.w3.org/Graphics/SVG/1.1/DTD/svg11.dtd" >
<svg xmlns="http://www.w3.org/2000/svg">
<metadata></metadata>
<defs>
<font id="brownstone_sanslight" horiz-adv-x="1089" >
<font-face units-per-em="2048" ascent="1638" descent="-410" />
<missing-glyph horiz-adv-x="389" />
<glyph unicode="&#xfb01;" horiz-adv-x="1024" d="M10 913v78l154 15v127q0 76 25.5 133t70.5 89t99.5 47t119.5 15q89 0 181 -26t161 -68l-59 -78q-56 37 -132 59.5t-147 22.5q-99 0 -161 -46.5t-62 -147.5v-123h600v-774q0 -69 16 -136t31 -100h-102q-41 110 -41 236v677h-504v-913h-96v913h-154z" />
<glyph unicode="&#xfb02;" horiz-adv-x="1083" d="M10 913v78l154 15v127q0 120 76 200t196 80q114 0 248 -90l-59 -78q-106 72 -189 72q-77 0 -126.5 -53t-49.5 -131v-123h236v-97h-236v-913h-96v913h-154zM786 236v1167h97v-1167q0 -69 16 -136t31 -100h-103q-41 110 -41 236z" />
<glyph horiz-adv-x="0" />
<glyph horiz-adv-x="682" />
<glyph unicode=" "  horiz-adv-x="389" />
<glyph unicode="&#x09;" horiz-adv-x="389" />
<glyph unicode="&#xa0;" horiz-adv-x="389" />
<glyph unicode="!" horiz-adv-x="571" d="M184 90q0 45 29 72.5t74 27.5t72.5 -27.5t27.5 -72.5q0 -44 -28 -73t-72 -29t-73.5 29t-29.5 73zM225 1405h127q-20 -1079 -20 -1122h-88z" />
<glyph unicode="&#x22;" horiz-adv-x="587" d="M123 1405h127l-23 -504h-80zM338 1405h127l-23 -504h-80z" />
<glyph unicode="#" horiz-adv-x="1288" d="M20 453v96h342l91 332h-332v96h356q11 38 56.5 203.5t68.5 251.5h100l-124 -455h266q17 61 61 217.5t66 237.5h100l-127 -455h324v-96h-348l-91 -332h338v-96h-364q-12 -44 -58 -212t-69 -255l-92 30l118 437h-266q-12 -44 -58 -212t-69 -255l-92 30l119 437h-316z M461 549h268l90 332h-266z" />
<glyph unicode="$" horiz-adv-x="1062" d="M102 334q0 41 15 117l96 -19q-12 -59 -12 -98q0 -121 77 -192.5t193 -86.5v607q-358 132 -358 364q0 161 104 261t254 114v96h96v-96q72 -7 137.5 -36.5t119.5 -80.5t90.5 -129t46.5 -174l-99 -8q-13 143 -97 227t-198 100v-573q67 -25 116.5 -47t104 -56.5t88 -72.5 t56 -92t22.5 -117q0 -88 -32 -159.5t-87 -118.5t-123 -74.5t-145 -34.5v-117h-96v119q-74 8 -139 35t-117.5 72t-82.5 114.5t-30 155.5zM209 1026q0 -162 262 -264v541q-112 -16 -187 -88t-75 -189zM567 51q122 13 206.5 88.5t84.5 202.5q0 165 -291 287v-578z" />
<glyph unicode="%" horiz-adv-x="1413" d="M102 1004q0 101 29 188t92.5 146t151.5 59q85 0 146.5 -58.5t89.5 -144t28 -182.5q0 -101 -28.5 -188t-92 -146.5t-151.5 -59.5q-85 0 -147 59t-90 145t-28 182zM199 1004q0 -73 18 -136.5t57 -107t93 -43.5q84 0 130 87.5t46 207.5q0 115 -44.5 201.5t-123.5 86.5 q-57 0 -98 -44.5t-59.5 -110t-18.5 -141.5zM207 35l944 1392l76 -59l-944 -1393zM774 360q0 74 17.5 143.5t50.5 126t86 90.5t119 34q85 0 146.5 -58.5t89.5 -144t28 -182.5q0 -101 -29 -187.5t-92.5 -145.5t-151.5 -59q-84 0 -145.5 58.5t-90 143.5t-28.5 181zM870 360 q0 -114 45 -200t123 -86q84 0 130 87.5t46 207.5q0 115 -44 201.5t-123 86.5q-56 0 -97.5 -44.5t-60.5 -111t-19 -141.5z" />
<glyph unicode="&#x26;" horiz-adv-x="1296" d="M92 377q0 221 309 385q-141 210 -141 332q0 76 26.5 138t71 100t100 58.5t115.5 20.5t115 -19.5t99 -57t70 -97.5t26 -135q0 -53 -20.5 -100.5t-49 -81.5t-79.5 -71t-91 -60t-104 -56q63 -81 114 -142t140.5 -154.5t181.5 -174.5q74 139 74 344q0 80 -7 144l97 8 q8 -76 8 -152q0 -255 -96 -409q139 -114 184 -148l-59 -76q-93 69 -183 146q-147 -160 -418 -160q-212 0 -347.5 117t-135.5 301zM190 377q0 -141 108 -231.5t277 -90.5q221 0 340 131q-233 203 -460 502q-265 -139 -265 -311zM356 1094q0 -103 129 -289q47 26 66.5 36.5 t59.5 35t58.5 39t45.5 39t39.5 45t22 47.5t9.5 55q0 100 -63.5 156.5t-149.5 56.5q-88 0 -152.5 -59t-64.5 -162z" />
<glyph unicode="'" horiz-adv-x="372" d="M123 1405h127l-23 -504h-80z" />
<glyph unicode="(" horiz-adv-x="602" d="M143 528q0 243 76.5 494.5t220.5 472.5l80 -51q-136 -209 -208 -447.5t-72 -468.5q0 -223 68.5 -449.5t201.5 -422.5l-74 -59q-146 213 -219.5 453.5t-73.5 477.5z" />
<glyph unicode=")" horiz-adv-x="602" d="M82 1444l80 51q144 -221 220.5 -472.5t76.5 -494.5q0 -237 -73.5 -477.5t-219.5 -453.5l-74 59q133 196 201.5 422.5t68.5 449.5q0 230 -72 468.5t-208 447.5z" />
<glyph unicode="*" horiz-adv-x="817" d="M113 1108l57 125l192 -107l-34 240h141l-18 -244l198 111l56 -125l-222 -68l164 -151l-94 -88l-143 186l-146 -186l-92 88l164 153z" />
<glyph unicode="+" horiz-adv-x="1058" d="M82 674v102h395v383h103v-383h397v-102h-397v-430h-103v430h-395z" />
<glyph unicode="," horiz-adv-x="456" d="M102 -102q28 14 39.5 20.5t33.5 19.5t35.5 25.5t22.5 26.5q-2 0 -7 -1t-7 -1q-42 0 -67 30t-25 70q0 42 27.5 72t78.5 30q52 0 76.5 -30t24.5 -80q0 -81 -55 -153t-142 -115z" />
<glyph unicode="-" horiz-adv-x="985" d="M82 449v102h821v-102h-821z" />
<glyph unicode="." horiz-adv-x="448" d="M123 90q0 45 28.5 72.5t73.5 27.5t73 -27.5t28 -72.5q0 -44 -28.5 -73t-72.5 -29t-73 29t-29 73z" />
<glyph unicode="/" horiz-adv-x="624" d="M-53 -143l563 1648l90 -30l-565 -1649z" />
<glyph unicode="0" horiz-adv-x="1171" d="M102 686q0 138 31 268.5t90 238t154 172.5t213 65q115 0 208.5 -64.5t151 -170t88.5 -234t31 -263.5q0 -138 -31 -268.5t-89.5 -237.5t-153.5 -172t-213 -65q-93 0 -173 42t-135.5 113.5t-95 166t-58 198.5t-18.5 211zM201 686q0 -118 24.5 -229t70 -202t120 -146.5 t166.5 -55.5q93 0 168.5 56.5t121.5 149.5t70.5 206t24.5 233q0 118 -24 229t-69 202.5t-118.5 146.5t-165.5 55q-94 0 -170 -56.5t-122.5 -149.5t-71.5 -206t-25 -233z" />
<glyph unicode="1" horiz-adv-x="657" d="M41 1032q65 39 123 92t94.5 100.5t63 89.5t38.5 66l11 25h102v-1405h-98v1210q-104 -156 -287 -264z" />
<glyph unicode="2" horiz-adv-x="968" d="M41 0q0 71 16 135t48 120t66.5 102t86.5 93t94 80t101 76q58 41 87.5 63.5t77 61.5t73 68t53 68t39.5 78.5t12 82.5q0 129 -87 217t-219 88q-131 0 -216.5 -85.5t-108.5 -219.5l-98 16q31 173 141 279.5t282 106.5q175 0 288.5 -116t113.5 -286q0 -56 -14.5 -107.5 t-45 -98t-62.5 -85t-83 -81t-89 -71t-97 -69.5q-68 -48 -121.5 -93t-105.5 -99t-83.5 -112.5t-37.5 -115.5h745v-96h-856z" />
<glyph unicode="3" horiz-adv-x="1071" d="M84 295q0 37 6 78l98 -17q-6 -37 -6 -67q0 -118 88.5 -178t225.5 -60q174 0 273 95t99 225q0 116 -82.5 206.5t-234.5 112.5h-107v98h99q123 17 196.5 95t73.5 176q0 110 -75.5 191t-205.5 81t-216 -84.5t-109 -218.5l-96 16q31 173 140 279.5t281 106.5q90 0 163 -32 t119 -85.5t70.5 -118.5t24.5 -135q0 -64 -26 -128t-81 -117t-128 -73q143 -44 218 -145t75 -223q0 -78 -31.5 -151.5t-89 -133t-148 -96t-200.5 -37.5q-190 0 -302 89.5t-112 250.5z" />
<glyph unicode="4" horiz-adv-x="1026" d="M41 299v82l645 1020h98v-1006h201v-96h-201v-299h-96v299h-647zM164 395h524v832z" />
<glyph unicode="5" horiz-adv-x="1101" d="M123 276q0 36 12 97l96 -17q-12 -62 -12 -80q0 -73 47.5 -125.5t118 -76t154.5 -23.5q93 0 166.5 34t117 89.5t66 121.5t22.5 136q0 97 -40.5 183.5t-123 144t-190.5 57.5q-146 0 -340 -149l-49 43l47 694h715v-96h-627q-8 -124 -17 -278t-12 -204q148 86 283 86 q106 0 193.5 -41t143.5 -109.5t86 -153t30 -175.5q0 -70 -17.5 -137.5t-55.5 -130t-91.5 -109t-132.5 -74.5t-172 -28q-110 0 -202.5 33.5t-154 108t-61.5 179.5z" />
<glyph unicode="6" horiz-adv-x="1107" d="M102 647q0 143 33 282t92 251.5t151.5 182t201.5 69.5q172 0 281 -106.5t140 -278.5l-96 -19q-23 135 -109 221t-216 86q-114 0 -202 -101.5t-132.5 -256.5t-46.5 -332q70 122 183.5 181t217.5 59q101 0 180.5 -35.5t127.5 -96.5t73 -135.5t25 -158.5q0 -72 -18 -143.5 t-54.5 -136t-87 -114t-121 -79t-150.5 -29.5q-95 0 -174.5 38.5t-134 104.5t-92 155t-55 187.5t-17.5 204.5zM211 475q14 -87 43.5 -161.5t73.5 -133.5t107.5 -93t139.5 -34q102 0 180 62t116 153t38 191q0 137 -79.5 233t-229.5 96q-49 0 -102 -17t-108 -51.5t-103 -98 t-76 -146.5z" />
<glyph unicode="7" horiz-adv-x="913" d="M20 1307v96h863v-78l-543 -1341l-90 34l520 1289h-750z" />
<glyph unicode="8" horiz-adv-x="1112" d="M92 371q0 120 64 226t182 161q-101 48 -154 132.5t-53 180.5q0 68 28 131.5t79.5 114.5t135.5 82t187 31q102 0 185 -30t134 -80.5t78 -112t27 -128.5q0 -98 -55 -184.5t-156 -134.5q118 -53 182 -158t64 -223q0 -81 -30 -156t-87 -135.5t-148 -96.5t-204 -36 q-111 0 -200.5 35.5t-145 94.5t-84.5 132.5t-29 153.5zM188 371q0 -130 96 -225t267 -95q90 0 162.5 28t117.5 74.5t69 104.5t24 121q0 61 -23.5 118.5t-67 105.5t-115 77t-159.5 29q-89 0 -162 -30t-117.5 -78.5t-68 -108t-23.5 -121.5zM227 1071q0 -49 21 -95.5t60 -85 t103 -62t142 -23.5h16q149 4 234.5 86.5t85.5 187.5q0 102 -86.5 178t-241.5 76q-156 0 -245 -78.5t-89 -183.5z" />
<glyph unicode="9" horiz-adv-x="1114" d="M102 905q0 96 30 188.5t83.5 168t137.5 122t184 46.5q114 0 206.5 -58t150 -154.5t88 -217.5t30.5 -252q0 -138 -21.5 -255.5t-59 -202.5t-87 -149.5t-108 -103.5t-119 -58.5t-123.5 -19.5q-101 0 -189.5 41.5t-142 115t-53.5 160.5q0 36 12 97l96 -17q-10 -51 -10 -80 q0 -93 86 -159t201 -66q61 0 118.5 24t112 78.5t95.5 134.5t66.5 201.5t26.5 270.5q-64 -143 -176.5 -214t-236.5 -71q-99 0 -177 35.5t-125.5 96.5t-71.5 136.5t-24 161.5zM199 918q0 -93 31 -169.5t101 -127t169 -50.5q61 0 120 22.5t113.5 66.5t96.5 119t61 171 q-38 169 -129 276t-225 107q-78 0 -143.5 -36t-107 -95.5t-64.5 -133t-23 -150.5z" />
<glyph unicode=":" horiz-adv-x="450" d="M123 90q0 45 28.5 72.5t73.5 27.5t73 -27.5t28 -72.5q0 -44 -28.5 -73t-72.5 -29t-73 29t-29 73zM125 545q0 45 28.5 72.5t73.5 27.5t73 -27.5t28 -72.5q0 -44 -28.5 -73.5t-72.5 -29.5t-73 29.5t-29 73.5z" />
<glyph unicode=";" horiz-adv-x="456" d="M102 -102q28 14 39.5 20.5t33.5 19.5t35.5 25.5t22.5 26.5q-2 0 -7 -1t-7 -1q-42 0 -67 30t-25 70q0 42 27.5 72t78.5 30q52 0 76.5 -30t24.5 -80q0 -81 -55 -153t-142 -115zM131 545q0 45 28.5 72.5t73.5 27.5t73 -27.5t28 -72.5q0 -44 -28.5 -73.5t-72.5 -29.5 t-73 29.5t-29 73.5z" />
<glyph unicode="&#x3c;" horiz-adv-x="1185" d="M121 678v86l854 459l47 -84l-778 -418l778 -418l-47 -84z" />
<glyph unicode="=" horiz-adv-x="1064" d="M82 532v99h901v-99h-901zM82 821v97h901v-97h-901z" />
<glyph unicode="&#x3e;" horiz-adv-x="1185" d="M162 303l778 418l-778 418l47 84l854 -459v-86l-854 -459z" />
<glyph unicode="?" horiz-adv-x="989" d="M20 1014q10 102 54.5 184t110.5 132t144.5 76t162.5 26q181 0 298 -94.5t117 -250.5q0 -49 -11.5 -94t-26 -76.5t-43.5 -69.5t-48 -58t-57 -58q-44 -44 -67 -70t-54 -71.5t-45 -96t-14 -110.5v-78h-97v78q0 61 13 116t29.5 92.5t49.5 81t54 66t61 62.5q34 34 48.5 49 t41 48t38.5 57t22 59.5t10 72.5q0 112 -90.5 180t-228.5 68q-66 0 -128 -20t-114 -59t-87.5 -102.5t-43.5 -143.5zM391 90q0 45 29 72.5t74 27.5t72.5 -27.5t27.5 -72.5q0 -44 -28 -73t-72 -29t-73.5 29t-29.5 73z" />
<glyph unicode="@" horiz-adv-x="1814" d="M102 485q0 107 27.5 217t79 215t131.5 197t178.5 161.5t227 109.5t270.5 40q198 0 355 -75.5t249 -221.5t92 -340q0 -146 -69.5 -286t-192.5 -231t-262 -91q-62 0 -105 35.5t-43 95.5q0 9 4 33q-61 -65 -130.5 -100t-129.5 -35q-141 0 -212.5 90.5t-71.5 228.5 q0 88 30 177t82 163.5t132 121t171 46.5q141 0 234 -90l6 33l96 -16l-116 -627q0 -30 14.5 -45t38.5 -15q112 0 211.5 76t157 194.5t57.5 241.5q0 164 -79 288t-214 188.5t-305 64.5q-152 0 -285.5 -51.5t-228.5 -136.5t-164.5 -195t-103 -228t-33.5 -233q0 -112 32 -200.5 t86.5 -147t131.5 -97t162 -55t182 -16.5q183 0 378 59t340 154l46 -90q-155 -98 -361 -158.5t-401 -60.5q-113 0 -212.5 19.5t-189.5 65.5t-154 115.5t-101.5 174.5t-37.5 237zM596 528q0 -98 47 -160.5t141 -62.5q66 0 143 52.5t136 144.5l63 334q-41 47 -98.5 74.5 t-112.5 27.5q-94 0 -169 -65t-112.5 -157.5t-37.5 -187.5z" />
<glyph unicode="A" horiz-adv-x="1380" d="M20 0l560 1315q39 90 108 90h12q72 0 111 -90l549 -1315h-107l-194 459h-735q-117 -283 -195 -459h-109zM365 557h653l-313 750h-21q-59 -131 -319 -750z" />
<glyph unicode="B" horiz-adv-x="1239" d="M184 104v1196q0 52 27.5 78.5t93.5 26.5h389q99 0 179 -30t129.5 -80t75.5 -112.5t26 -129.5q0 -94 -47 -176t-135 -132q102 -52 158.5 -148.5t56.5 -197.5q0 -55 -16.5 -110.5t-50.5 -107.5t-81.5 -92.5t-115.5 -64.5t-146 -24h-422q-66 0 -93.5 26t-27.5 78zM281 98 h450q73 0 133.5 28.5t97.5 73.5t56.5 96.5t19.5 102.5q0 50 -18.5 99.5t-56 94t-104 72t-152.5 27.5h-426v-594zM281 791h417q145 0 226.5 78t81.5 184q0 103 -82 178.5t-230 75.5h-413v-516z" />
<glyph unicode="C" horiz-adv-x="1357" d="M102 692q0 112 24.5 218.5t76 201.5t124.5 166t176.5 112.5t225.5 41.5q198 0 339.5 -114t203.5 -308l-92 -29q-51 162 -169 258t-282 96q-102 0 -189 -36t-149 -98.5t-106 -144.5t-65 -174.5t-21 -189.5t21 -189t64.5 -174t105 -143t148.5 -97t189 -36q168 0 288.5 90.5 t174.5 257.5l96 -30q-63 -197 -209.5 -306.5t-349.5 -109.5q-122 0 -225 41t-176 111.5t-124 165t-75.5 200.5t-24.5 219z" />
<glyph unicode="D" horiz-adv-x="1378" d="M184 104v1196q0 52 28.5 78.5t94.5 26.5h318q325 0 488 -179t163 -513q0 -335 -168 -524t-492 -189h-309q-66 0 -94.5 26t-28.5 78zM283 98h333q276 0 419 163t143 452q0 288 -138 441t-415 153h-342v-1209z" />
<glyph unicode="E" horiz-adv-x="1179" d="M184 104v1196q0 52 28.5 78.5t94.5 26.5h764v-98h-788v-484h735v-98h-735v-627h815v-98h-791q-66 0 -94.5 26t-28.5 78z" />
<glyph unicode="F" horiz-adv-x="1153" d="M184 0v1300q0 52 28.5 78.5t94.5 26.5h764v-98h-788v-484h637v-98h-637v-725h-99z" />
<glyph unicode="G" horiz-adv-x="1449" d="M102 692q0 112 24.5 218.5t76 201.5t124.5 166t176.5 112.5t225.5 41.5q199 0 341 -114t202 -308l-92 -29q-51 163 -168.5 258.5t-282.5 95.5q-102 0 -189 -36t-148.5 -98t-105 -144.5t-64.5 -175t-21 -189.5t20.5 -189t64 -174t104.5 -143t148 -97t189 -36q165 0 284 92 t171 250v273h-539v98h514q67 0 95 -25t28 -77v-424q0 -71 16 -139t31 -101h-104q-11 27 -23 89t-16 120q-66 -126 -185.5 -190t-271.5 -64q-122 0 -225 41t-176 111.5t-124 165t-75.5 200.5t-24.5 219z" />
<glyph unicode="H" horiz-adv-x="1439" d="M184 0v1405h99v-582h874v582h98v-1405h-98v725h-874v-725h-99z" />
<glyph unicode="I" horiz-adv-x="466" d="M184 0v1405h99v-1405h-99z" />
<glyph unicode="J" horiz-adv-x="776" d="M41 57l47 88q142 -86 238 -86q79 0 128.5 57.5t49.5 164.5v1124h98v-1124q0 -155 -76 -237.5t-200 -82.5q-137 0 -285 96z" />
<glyph unicode="K" horiz-adv-x="1282" d="M184 0v1405h99v-582h286l564 598l67 -69l-547 -580l568 -772h-123l-533 725h-282v-725h-99z" />
<glyph unicode="L" horiz-adv-x="1081" d="M184 104v1301h99v-1307h778v-98h-754q-68 0 -95.5 26t-27.5 78z" />
<glyph unicode="M" horiz-adv-x="1746" d="M184 0v1405h101l587 -1241q18 39 185.5 389.5t404.5 851.5h101v-1405h-99v1180l-561 -1180h-61l-559 1178v-1178h-99z" />
<glyph unicode="N" horiz-adv-x="1456" d="M184 0v1405h95l895 -1233v1233h98v-1405h-94l-895 1233v-1233h-99z" />
<glyph unicode="O" horiz-adv-x="1482" d="M102 690q0 93 18 183t53 173t90 153.5t124.5 122t160.5 81t195 29.5q123 0 228.5 -41.5t179.5 -112t126.5 -165t77.5 -200t25 -217.5t-25.5 -218.5t-78 -201.5t-127.5 -166.5t-181 -113t-231 -41.5q-123 0 -227.5 41t-178.5 111.5t-126.5 164.5t-77.5 200t-25 218z M201 690q0 -97 21 -189t65.5 -173.5t107 -142.5t150.5 -96.5t192 -35.5q131 0 237 55t172 146.5t101 205t35 236.5q0 121 -34.5 234t-100 204t-170.5 146t-234 55q-130 0 -235.5 -55t-171 -147t-100.5 -206t-35 -237z" />
<glyph unicode="P" horiz-adv-x="1198" d="M184 0v1300q0 52 28.5 78.5t94.5 26.5h379q105 0 191.5 -39.5t139 -102t81 -133.5t28.5 -139q0 -71 -29.5 -144t-84 -136.5t-143.5 -103.5t-197 -40h-389v-567h-99zM283 666h389q85 0 155 30.5t112.5 79t65.5 104.5t23 111q0 52 -22 106.5t-63 102t-108.5 77.5t-148.5 30 h-403v-641z" />
<glyph unicode="Q" horiz-adv-x="1486" d="M102 719q0 112 25.5 218.5t78 201.5t127 166.5t180.5 113t230 41.5q123 0 228.5 -41t179.5 -112t126.5 -165t77.5 -199.5t25 -217.5q0 -175 -61 -333t-178 -261l28 -31q83 -90 147 -140.5t136 -59.5l-4 -99q-69 9 -136.5 48t-110 78.5t-103.5 105.5l-37 39 q-141 -88 -324 -88q-123 0 -227.5 41t-178.5 111.5t-126.5 164.5t-77.5 200t-25 218zM201 719q0 -241 116 -412q179 103 330 103q205 0 422 -209q103 90 158 229.5t55 294.5q0 121 -34.5 234t-100 204t-170.5 146t-234 55q-130 0 -235.5 -55t-171 -147t-100.5 -206t-35 -237 zM377 229q144 -147 360 -147q141 0 250 61q-179 168 -340 168q-123 0 -270 -82z" />
<glyph unicode="R" horiz-adv-x="1257" d="M184 0v1300q0 52 28.5 78.5t94.5 26.5h379q105 0 191.5 -39.5t139 -102t81 -133.5t28.5 -139q0 -79 -33.5 -158t-105.5 -147.5t-170 -97.5l338 -588h-117q-91 166 -161 283l-166 286q-12 -2 -39 -2h-389v-567h-99zM283 666h389q85 0 155 30.5t112.5 79t65.5 104.5t23 111 q0 52 -22 106.5t-63 102t-108.5 77.5t-148.5 30h-403v-641z" />
<glyph unicode="S" horiz-adv-x="1181" d="M82 369q0 56 14 125l97 -19q-13 -83 -13 -106q0 -101 58 -175t146 -108.5t191 -34.5q105 0 196 35.5t151.5 111.5t60.5 179q0 41 -14 77.5t-35 64t-58 54.5t-69.5 45.5t-84 39.5t-87.5 34t-92 31q-55 18 -90.5 30.5t-83.5 32.5t-78.5 38t-64 44t-52 53.5t-31 63 t-12.5 76.5q0 88 36.5 160t98 117.5t139 69.5t162.5 24q68 0 133 -16t124 -50.5t105.5 -84t78 -119.5t39.5 -154h-101q-11 107 -69.5 183t-138 110t-171.5 34q-88 0 -163.5 -30.5t-125 -94.5t-49.5 -149q0 -41 28 -78t80.5 -67.5t109 -53.5t131.5 -47q61 -20 103 -35.5 t98.5 -40t95.5 -48t80.5 -57.5t66.5 -70.5t41 -84.5t16 -102q0 -102 -43 -185t-115 -134t-161 -78t-185 -27q-95 0 -182 26.5t-157 76.5t-112 131t-42 182z" />
<glyph unicode="T" horiz-adv-x="1157" d="M20 1307v98h1117v-98h-510v-1067q0 -71 16 -139t31 -101h-105q-41 126 -41 240v1067h-508z" />
<glyph unicode="U" horiz-adv-x="1374" d="M174 516v889h98v-889q0 -110 35.5 -200t94.5 -145.5t132 -85.5t152 -30q80 0 153.5 30t132.5 85.5t94.5 145.5t35.5 200v889h98v-889q0 -135 -44 -244t-117.5 -176.5t-164 -103t-188.5 -35.5q-78 0 -151.5 22t-139 68t-115 111t-78 157t-28.5 201z" />
<glyph unicode="V" horiz-adv-x="1378" d="M20 1384l93 37l569 -1343h23l561 1343l92 -37l-549 -1314q-38 -90 -111 -90h-12q-73 0 -111 90z" />
<glyph unicode="W" horiz-adv-x="1812" d="M20 1384l93 37q34 -79 201 -476.5t368 -866.5h18l152 420l-315 886l90 37l278 -776l281 776l90 -37l-318 -886l154 -420h18q200 466 367 863.5t203 479.5l92 -37l-555 -1314q-38 -90 -109 -90h-12q-37 0 -66 23.5t-44 66.5l-101 278l-98 -278q-15 -42 -44.5 -66 t-66.5 -24h-12q-71 0 -109 90z" />
<glyph unicode="X" horiz-adv-x="1249" d="M20 35l490 663l-479 666l80 61l487 -675h53l490 673l78 -59l-484 -668l494 -661l-78 -58l-502 674h-49l-502 -674z" />
<glyph unicode="Y" horiz-adv-x="1265" d="M20 1376l82 51l521 -802h18l520 802l84 -51l-516 -794q-24 -35 -47 -45v-537h-98v535q-30 15 -49 47z" />
<glyph unicode="Z" horiz-adv-x="1206" d="M41 0l936 1307h-856v98h1044l-936 -1307h904v-98h-1092z" />
<glyph unicode="[" horiz-adv-x="610" d="M184 -319v1703q0 50 27.5 76.5t91.5 26.5h266v-96h-288v-1717h288v-96h-266q-64 0 -91.5 26.5t-27.5 76.5z" />
<glyph unicode="\" horiz-adv-x="671" d="M-25 1475l91 30l563 -1648l-88 -31z" />
<glyph unicode="]" horiz-adv-x="610" d="M41 -326h289v1717h-289v96h266q64 0 91.5 -26.5t27.5 -76.5v-1703q0 -50 -27.5 -76.5t-91.5 -26.5h-266v96z" />
<glyph unicode="_" horiz-adv-x="1085" d="M0 -72h1085v-82h-1085v82z" />
<glyph unicode="`" horiz-adv-x="600" d="M162 1341l86 74l219 -278l-74 -64z" />
<glyph unicode="a" horiz-adv-x="1099" d="M82 287q0 67 19.5 119.5t51.5 89.5t86.5 63t110.5 41.5t139 24.5t156.5 12t177.5 4q-9 150 -77 222.5t-216 72.5q-101 0 -180.5 -46t-118.5 -124l-90 33q53 107 156 170t233 63q207 0 298.5 -111t91.5 -327v-358q0 -69 16 -136t31 -100h-103q-15 40 -28 119.5t-13 173.5 q-59 -153 -174 -243.5t-225 -90.5q-141 0 -241.5 92t-100.5 236zM180 287q0 -101 71.5 -166.5t172.5 -65.5q121 0 234.5 130.5t158.5 359.5q-89 -1 -152.5 -3.5t-134.5 -9t-119.5 -18t-95.5 -30.5t-74.5 -45.5t-44 -64.5t-16.5 -87z" />
<glyph unicode="b" horiz-adv-x="1122" d="M113 0q14 28 29.5 96.5t15.5 139.5v1167h98v-541q56 81 152 122.5t192 41.5q107 0 193 -45.5t139 -121.5t80.5 -169.5t27.5 -195.5q0 -81 -17 -157.5t-52.5 -144.5t-86.5 -119t-123.5 -80.5t-158.5 -29.5q-67 0 -134 23.5t-127.5 78.5t-88.5 132q-8 -103 -37 -197h-102z M256 426q50 -179 144.5 -273t201.5 -94t186 64.5t116.5 161.5t37.5 209t-37.5 209t-117 161t-187.5 64q-89 0 -180.5 -49t-163.5 -140v-313z" />
<glyph unicode="c" horiz-adv-x="1007" d="M82 496q0 102 30 196.5t86 171t146 122.5t201 46q118 0 218 -60.5t163 -164.5l-88 -47q-47 82 -125 129t-168 47q-88 0 -159.5 -37.5t-115 -100.5t-67 -140.5t-23.5 -161.5q0 -85 23.5 -162.5t67 -140.5t115 -100.5t159.5 -37.5q187 0 297 166l82 -49 q-66 -103 -163.5 -158t-215.5 -55q-111 0 -201 45.5t-146 122t-86 171.5t-30 198z" />
<glyph unicode="d" horiz-adv-x="1126" d="M82 494q0 102 27.5 195.5t80.5 169.5t139 121.5t193 45.5q220 0 346 -164v543h97v-1169q0 -69 17 -135.5t32 -100.5h-105q-25 58 -39 197q-48 -111 -148 -172.5t-202 -61.5q-86 0 -158.5 29.5t-123.5 80.5t-86.5 119t-52.5 144.5t-17 157.5zM180 494q0 -112 37.5 -209 t116.5 -161.5t186 -64.5t202.5 94t145.5 273v313q-73 95 -162.5 142t-183.5 47q-108 0 -187.5 -64t-117 -161t-37.5 -209z" />
<glyph unicode="e" horiz-adv-x="1081" d="M82 502q0 81 18 157.5t56.5 144t93 118.5t132 80.5t169.5 29.5q111 0 197.5 -37t140.5 -102.5t82 -151t28 -186.5q0 -50 -27 -76t-91 -26h-697q12 -186 112 -292t263 -106q100 0 179 43t126 123l82 -49q-67 -103 -165.5 -158t-221.5 -55q-115 0 -208 46.5t-150.5 124 t-88 173.5t-30.5 199zM184 549h719q0 167 -91.5 277t-260.5 110q-156 0 -254.5 -104.5t-112.5 -282.5z" />
<glyph unicode="f" horiz-adv-x="602" d="M10 913v78l154 15v127q0 120 76 200t196 80q114 0 248 -90l-59 -78q-106 72 -189 72q-77 0 -126.5 -53t-49.5 -131v-123h236v-97h-236v-913h-96v913h-154z" />
<glyph unicode="g" horiz-adv-x="1122" d="M61 -109q0 170 224 285q-54 35 -54 76q0 51 72 108q-92 49 -141 131t-49 175q0 70 28.5 135t82.5 119t143 86t200 32q141 0 250 -53q72 6 107.5 32.5t60.5 82.5l90 -37q-28 -63 -65.5 -96.5t-98.5 -48.5q113 -104 113 -252q0 -70 -29 -134t-84 -116.5t-144.5 -83.5 t-199.5 -31q-81 0 -170 21q-53 -38 -53 -58q0 -23 40.5 -35.5t105.5 -18t143.5 -12t157.5 -23t144 -43.5t105.5 -80.5t40.5 -129.5q0 -85 -47.5 -155t-125.5 -114t-173.5 -67.5t-195.5 -23.5q-94 0 -178 20.5t-152 59.5t-108 103.5t-40 145.5zM160 -109q0 -75 56 -128 t140 -77t185 -24q112 0 210.5 29t164 90t65.5 141q0 48 -32 82.5t-81 52t-115.5 29.5t-126 16.5t-122.5 11t-96 15.5q-248 -89 -248 -238zM213 666q0 -52 22 -99t64 -85.5t111.5 -61.5t156.5 -23q170 0 263.5 79.5t93.5 189.5q0 53 -22.5 101t-65.5 87t-112.5 62.5 t-156.5 23.5q-171 0 -262.5 -81t-91.5 -193z" />
<glyph unicode="h" horiz-adv-x="1128" d="M113 0q7 15 16.5 45t21 87t11.5 106v1167h96v-555q43 67 105 109.5t121 57.5t124 15q76 0 142 -25t118 -73.5t81.5 -128.5t29.5 -182v-387q0 -69 16 -136t31 -100h-102q-41 110 -41 236v387q0 156 -77 233.5t-198 77.5q-207 0 -350 -219v-477q0 -112 -41 -238h-104z" />
<glyph unicode="i" horiz-adv-x="421" d="M106 1276q0 44 29 72t74 28t72.5 -27.5t27.5 -72.5t-27.5 -73.5t-72.5 -28.5q-44 0 -73.5 29t-29.5 73zM162 236v772h96v-772q0 -69 16 -136t31 -100h-102q-41 110 -41 236z" />
<glyph unicode="j" horiz-adv-x="483" d="M-215 -291l59 78q106 -72 191 -72q76 0 125 53t49 130v1134h98v-1134q0 -119 -76 -199t-196 -80q-116 0 -250 90zM158 1276q0 44 29 72t73 28t72 -28t28 -72t-28 -73t-72 -29t-73 29t-29 73z" />
<glyph unicode="k" horiz-adv-x="1009" d="M113 0q8 18 18 46t22.5 85.5t12.5 106.5v1165h96v-854h275l317 481l80 -51l-316 -481l371 -498h-121l-336 453h-270v-215q0 -122 -43 -238h-106z" />
<glyph unicode="l" horiz-adv-x="481" d="M184 236v1167h97v-1167q0 -69 16 -136t31 -100h-103q-41 110 -41 236z" />
<glyph unicode="m" horiz-adv-x="1624" d="M113 981l80 31q39 -72 57 -152q128 174 317 174q49 0 100 -16t97.5 -55t64.5 -93q45 82 117.5 122t157.5 40q76 0 142 -25t118 -73.5t81.5 -128.5t29.5 -182v-387q0 -69 16 -136t31 -100h-105q-41 110 -41 236v387q0 156 -76 234.5t-196 78.5q-80 0 -147 -47t-91 -127 v-762h-98v758q0 85 -62.5 132.5t-138.5 47.5q-81 0 -171 -62t-138 -159v-717h-98v752q0 53 -12 110t-24 88z" />
<glyph unicode="n" horiz-adv-x="1126" d="M113 981l80 31q39 -72 57 -152q79 85 172 128.5t184 43.5q76 0 142 -25t118 -73.5t81.5 -128.5t29.5 -182v-387q0 -69 16 -136t31 -100h-102q-41 110 -41 236v387q0 156 -77 233.5t-198 77.5q-92 0 -183.5 -54t-164.5 -165v-715h-98v752q0 53 -12 110t-24 88z" />
<glyph unicode="o" d="M82 496q0 103 30 198t86.5 171t147 121.5t203.5 45.5q89 0 164.5 -29.5t129 -80.5t91.5 -119t56 -145t18 -158q0 -103 -30 -198.5t-85.5 -173t-145.5 -124.5t-200 -47q-112 0 -202.5 46t-146.5 122.5t-86 172t-30 198.5zM178 496q0 -84 24 -162t68.5 -141t116.5 -100.5 t160 -37.5q69 0 128.5 25t102 68t72.5 100t44.5 121t14.5 131q0 84 -23 160.5t-66.5 138.5t-113.5 98.5t-157 36.5q-89 0 -161 -37.5t-117 -100t-69 -139.5t-24 -161z" />
<glyph unicode="p" horiz-adv-x="1126" d="M113 981l80 31q37 -68 55 -162q78 86 171 131t183 45q107 0 193.5 -45.5t139.5 -121.5t81 -169.5t28 -195.5q0 -81 -17 -157.5t-52.5 -144.5t-86.5 -119t-123.5 -80.5t-158.5 -29.5q-219 0 -348 246v-588h-98v1131q0 53 -12 110t-24 88zM258 424q54 -183 147.5 -274 t200.5 -91t186 64.5t116.5 161.5t37.5 209t-38 209.5t-118 162t-188 64.5q-86 0 -176 -49.5t-168 -143.5v-313z" />
<glyph unicode="q" horiz-adv-x="1132" d="M82 494q0 102 27.5 195.5t80.5 169.5t139 121.5t193 45.5q181 0 344 -166v148h97v-1127q0 -53 14.5 -115.5t28.5 -98.5l14 -36l-88 -37q-7 17 -18 45t-29.5 104t-18.5 138v320q-125 -238 -348 -238q-107 0 -192 45t-137 121t-79.5 169.5t-27.5 195.5zM180 494 q0 -112 37.5 -209t116.5 -161.5t186 -64.5q105 0 198.5 91t147.5 274v313q-78 94 -168 143.5t-176 49.5q-108 0 -187.5 -64.5t-117 -162t-37.5 -209.5z" />
<glyph unicode="r" horiz-adv-x="710" d="M113 981l80 31q6 -11 15.5 -30.5t26.5 -79t21 -116.5q69 113 185.5 178.5t269.5 65.5v-96q-197 0 -326 -122t-129 -294v-518h-96v752q0 53 -12 110t-24 88z" />
<glyph unicode="s" horiz-adv-x="989" d="M61 299q0 29 7 76l98 -19q-8 -33 -8 -69q0 -115 86 -175.5t229 -60.5q136 0 237 61t101 167q0 30 -10 55.5t-25 44t-41.5 35t-50 27t-61 22t-63.5 18t-68 15.5q-52 11 -80 17.5t-75 20t-73.5 25.5t-59.5 32t-50.5 42t-30 53t-12.5 68q0 89 54.5 154t137 94.5t178.5 29.5 q82 0 156.5 -24t137 -78t91.5 -131l-88 -35q-32 84 -113.5 126t-183.5 42q-71 0 -131.5 -18.5t-100.5 -60t-40 -99.5q0 -28 16.5 -51t43 -38.5t65.5 -28.5t79.5 -22.5t89.5 -19.5q7 -1 11 -2q49 -10 84 -19t79 -23t74.5 -30t62 -39.5t50.5 -51.5t31 -66.5t12 -83.5 q0 -103 -65 -179.5t-162 -112.5t-207 -36q-186 0 -299 90t-113 258z" />
<glyph unicode="t" horiz-adv-x="694" d="M10 913v76l164 17v200h96v-196h277v-97h-277v-671q0 -78 49.5 -131.5t126.5 -53.5q81 0 191 72l57 -78q-134 -90 -248 -90q-121 0 -196.5 81t-75.5 200v671h-164z" />
<glyph unicode="u" horiz-adv-x="1110" d="M133 387v621h96v-621q0 -158 78.5 -246t196.5 -88q93 0 185 54.5t165 164.5v736h96v-772q0 -69 16 -136t31 -100h-102q-29 74 -35 147q-77 -95 -170 -142.5t-186 -47.5q-157 0 -264 114t-107 316z" />
<glyph unicode="v" horiz-adv-x="983" d="M10 981l92 35l392 -938l389 938l90 -35l-383 -932q-28 -67 -92 -67h-11q-30 0 -55.5 18.5t-38.5 50.5z" />
<glyph unicode="w" horiz-adv-x="1488" d="M10 981l92 35l392 -938l198 532l-135 371l88 35l98 -268l101 268l88 -35l-137 -371l200 -532l391 938l93 -35l-383 -930q-13 -32 -38 -50.5t-54 -18.5h-13q-30 0 -55 17.5t-37 49.5l-156 422l-153 -422q-12 -32 -37 -49.5t-55 -17.5h-13q-29 0 -54 18.5t-38 50.5z" />
<glyph unicode="x" horiz-adv-x="1110" d="M10 0l441 528q-56 64 -176 210.5t-183 217.5l72 68l375 -446h32l375 446l72 -68q-67 -76 -195.5 -226.5t-173.5 -201.5l451 -528h-131l-389 471h-50l-389 -471h-131z" />
<glyph unicode="y" horiz-adv-x="980" d="M10 979l90 35l418 -914l363 916l90 -35l-424 -1075q-50 -128 -124 -193t-192 -65q-51 0 -186 33l29 94q108 -31 157 -31q81 0 134 50.5t92 148.5l22 59q-26 16 -47 59q-115 250 -209.5 456.5t-139.5 305t-73 156.5z" />
<glyph unicode="z" horiz-adv-x="952" d="M10 0l738 915l-650 -4v97h844l-737 -916l686 4v-96h-881z" />
<glyph unicode="{" horiz-adv-x="563" d="M82 496v90q61 17 87 60t26 116v420q0 160 78 234.5t247 74.5v-96q-119 0 -174 -51.5t-55 -161.5v-420q0 -164 -74 -225q74 -65 74 -218v-407q0 -131 52.5 -185.5t178.5 -54.5v-96q-178 0 -252.5 76.5t-74.5 259.5v407q0 70 -26 113.5t-87 63.5z" />
<glyph unicode="|" horiz-adv-x="473" d="M184 -426v1917h105v-1917h-105z" />
<glyph unicode="}" horiz-adv-x="563" d="M41 -328q126 0 178.5 54.5t52.5 185.5v407q0 153 74 218q-74 61 -74 225v420q0 110 -55 161.5t-174 51.5v96q169 0 247.5 -74.5t78.5 -234.5v-420q0 -74 25.5 -116.5t86.5 -59.5v-90q-61 -20 -86.5 -63t-25.5 -114v-407q0 -183 -74.5 -259.5t-253.5 -76.5v96z" />
<glyph unicode="&#xa1;" horiz-adv-x="571" d="M184 930q0 44 28.5 73t72.5 29t73 -29t29 -73q0 -45 -28.5 -73t-73.5 -28t-73 28t-28 73zM219 -395q21 1079 21 1122h88l18 -1122h-127z" />
<glyph unicode="&#xa2;" horiz-adv-x="1067" d="M102 692q0 94 24.5 182t72 162t123.5 124t172 63v182h100v-176q109 -6 200.5 -65.5t149.5 -157.5l-86 -50q-44 77 -113.5 124t-154.5 53q0 -150 2 -438.5t2 -440.5q171 12 268 166l82 -51q-132 -202 -354 -211v-158h-96v164q-96 13 -172 62t-123.5 122.5t-72 161 t-24.5 182.5zM199 692q0 -106 29.5 -196t98 -156t167.5 -80v864q-93 -20 -161.5 -87t-101 -156.5t-32.5 -188.5z" />
<glyph unicode="&#xa3;" horiz-adv-x="1116" d="M53 102v72q95 3 141 62t46 159v361h-152v102h152v143q0 98 31.5 176.5t84.5 127.5t119.5 74.5t140.5 25.5q172 0 283 -106t141 -277l-96 -18q-22 135 -109.5 220t-218.5 85q-115 0 -196.5 -80t-81.5 -228v-143h293v-102h-293v-361q0 -231 -133 -299h753q46 0 68.5 5.5 t32 16t20.5 36.5l99 -17q-16 -38 -25.5 -58t-25 -38t-24.5 -24.5t-35 -11t-45 -5t-65 -0.5h-786q-65 0 -92 26t-27 76z" />
<glyph unicode="&#xa5;" horiz-adv-x="1021" d="M10 1354l80 51l420 -653h10q7 23 412 653l80 -51l-373 -576h301v-96h-379v-176h379v-96h-379v-410h-98v410h-369v96h369v176h-369v96h289z" />
<glyph unicode="&#xa6;" horiz-adv-x="464" d="M184 406h97v-832h-97v832zM184 662v831h97v-831h-97z" />
<glyph unicode="&#xa7;" horiz-adv-x="1034" d="M92 -57q0 35 12 96l97 -16q-11 -56 -11 -80q0 -107 93.5 -165.5t224.5 -58.5q87 0 162 24.5t125.5 77t50.5 124.5q0 68 -38.5 124t-100 96t-135.5 76.5l-148 73t-135.5 77t-100 97.5t-38.5 125q0 177 178 242q-80 46 -129 117t-49 153q0 89 53.5 153.5t135.5 94t179 29.5 q122 0 230.5 -68.5t154.5 -185.5l-90 -35q-31 88 -115 140.5t-180 52.5q-111 0 -191.5 -47.5t-80.5 -133.5q0 -58 38.5 -106.5t100 -84.5t135.5 -71t148 -74t135.5 -83t100 -108.5t38.5 -141.5q0 -76 -35.5 -138.5t-97.5 -103.5q60 -48 96.5 -121t36.5 -149 q0 -103 -64.5 -178.5t-161.5 -110.5t-208 -35q-81 0 -154.5 20t-132.5 58.5t-94 101.5t-35 142zM246 614q0 -48 38 -93.5t100 -81.5t123.5 -64.5t125.5 -56t88 -42.5q125 59 125 181q0 31 -11 59.5t-27 52t-47.5 49t-59 44t-74.5 43.5t-82 42t-94 44q-89 -14 -147 -60 t-58 -117z" />
<glyph unicode="&#xa8;" horiz-adv-x="716" d="M102 1321q0 44 29 72t74 28q44 0 72 -28t28 -72t-28 -73t-72 -29t-73.5 29t-29.5 73zM457 1321q0 44 29 72t73 28t72 -28t28 -72t-28 -73t-72 -29t-73 29t-29 73z" />
<glyph unicode="&#xa9;" horiz-adv-x="1603" d="M61 686q0 150 58.5 287t158 236t236.5 157.5t287 58.5q151 0 288.5 -58.5t236.5 -157t157.5 -235.5t58.5 -288t-58.5 -287.5t-158 -235t-236.5 -156.5t-288 -58q-150 0 -287 58t-236.5 156.5t-158 235t-58.5 287.5zM160 686q0 -175 86 -322t233.5 -232t321.5 -85 q175 0 323 85t234 232t86 322t-86 322.5t-234 233t-323 85.5q-174 0 -321.5 -86t-233.5 -233.5t-86 -321.5zM377 690q0 201 119 327t309 126q120 0 220 -60t161 -165l-86 -48q-48 82 -126 129.5t-169 47.5q-148 0 -240 -99.5t-92 -257.5q0 -108 50 -189t125.5 -120 t160.5 -39q191 0 299 168l80 -51q-65 -103 -162 -158t-217 -55q-81 0 -157 29t-138 83t-99.5 140.5t-37.5 191.5z" />
<glyph unicode="&#xaa;" horiz-adv-x="937" d="M154 924q0 63 26 109.5t67.5 73.5t108 43.5t132 22.5t155.5 7q-23 153 -174 153q-65 0 -115.5 -30.5t-77.5 -83.5l-88 32q38 84 113 131.5t168 47.5q147 0 211.5 -79t64.5 -231v-202q0 -30 11 -91t22 -96h-98q-13 25 -29 150q-28 -63 -74 -105.5t-89.5 -58t-86.5 -15.5 q-105 0 -176 59.5t-71 162.5zM197 514v92h587v-92h-587zM250 924q0 -61 42.5 -93t108.5 -32t139 65t109 176v56q-89 -2 -156 -10t-124.5 -26.5t-88 -52.5t-30.5 -83z" />
<glyph unicode="&#xab;" horiz-adv-x="817" d="M41 475v55l389 340l68 -67l-346 -301l346 -307l-68 -68zM319 475v55l390 340l67 -67l-346 -301l346 -307l-67 -68z" />
<glyph unicode="&#xac;" horiz-adv-x="1435" d="M82 666v96h1272v-346h-97v250h-1175z" />
<glyph unicode="&#xad;" horiz-adv-x="985" d="M82 449v102h821v-102h-821z" />
<glyph unicode="&#xae;" horiz-adv-x="1052" d="M31 934q0 135 66 249t180 180.5t249 66.5q136 0 250 -66t180 -180t66 -250t-66 -249t-180 -178t-250 -65q-206 0 -350.5 143t-144.5 349zM129 934q0 -166 115.5 -280.5t281.5 -114.5t283 115t117 280q0 167 -117 283t-283 116t-281.5 -116.5t-115.5 -282.5zM303 627v557 q0 41 19 61.5t69 20.5h150q123 0 189.5 -61t66.5 -150q0 -117 -123 -183l108 -198q-27 -32 -86 -58l-121 228q-14 -2 -40 -2h-136v-215h-96zM399 938h136q79 0 122 33.5t43 83.5q0 49 -42 81.5t-117 32.5h-142v-231z" />
<glyph unicode="&#xaf;" horiz-adv-x="1024" d="M213 1186v96h604v-96h-604z" />
<glyph unicode="&#xb0;" horiz-adv-x="731" d="M82 1126q0 127 83 216.5t202 89.5q118 0 200 -89t82 -217q0 -129 -81.5 -217t-200.5 -88t-202 89t-83 216zM180 1126q0 -88 54.5 -148t132.5 -60q77 0 131.5 60t54.5 148q0 86 -54.5 147.5t-131.5 61.5q-78 0 -132.5 -61.5t-54.5 -147.5z" />
<glyph unicode="&#xb1;" horiz-adv-x="1058" d="M82 211v104h895v-104h-895zM82 733v105h395v321h103v-321h397v-105h-397v-366h-103v366h-395z" />
<glyph unicode="&#xb2;" horiz-adv-x="841" d="M55 379q1 79 24.5 150t67.5 130.5t93.5 107t115.5 95.5l62 45q52 38 79.5 60t61 53.5t48 59t14.5 55.5q0 83 -66.5 131.5t-155.5 48.5q-83 0 -148 -51t-75 -142l-96 6q16 134 107.5 208.5t211.5 74.5q82 0 153 -30t119 -94.5t48 -151.5q0 -44 -20.5 -86t-65 -86 t-77.5 -70.5t-95 -73.5l-47 -35q-221 -162 -254 -309h608v-96h-713z" />
<glyph unicode="&#xb3;" horiz-adv-x="864" d="M82 600q0 24 8 78l96 -16q-8 -54 -8 -62q0 -77 67.5 -117.5t162.5 -40.5q119 0 188.5 73t69.5 165q0 72 -52 125t-143 63h-111v97h95q84 13 130 54.5t46 102.5q0 78 -53.5 136.5t-145.5 58.5q-91 0 -152.5 -62.5t-76.5 -160.5l-99 16q24 137 109 220t219 83 q138 0 216.5 -86.5t78.5 -204.5q0 -132 -117 -200q72 -41 112 -104t40 -138q0 -60 -22.5 -118.5t-65 -107.5t-112 -79.5t-154.5 -30.5t-157.5 27t-120.5 86.5t-48 142.5z" />
<glyph unicode="&#xb4;" horiz-adv-x="600" d="M115 1130l221 279l84 -74l-230 -268z" />
<glyph unicode="&#xb6;" horiz-adv-x="1112" d="M41 1012q0 128 63.5 218.5t166.5 132.5t235 42h467v-96h-156v-1690h-96v1690h-123v-1690h-96v1004q-131 0 -233 41t-165 130.5t-63 217.5zM137 1012q0 -143 102 -217t263 -74v588q-160 -2 -262.5 -78.5t-102.5 -218.5z" />
<glyph unicode="&#xb7;" horiz-adv-x="448" d="M123 610q0 45 28.5 73t73.5 28t73 -28t28 -73q0 -44 -28.5 -73t-72.5 -29t-73 29t-29 73z" />
<glyph unicode="&#xb8;" horiz-adv-x="1017" d="M293 -330l59 78q110 -72 189 -72q59 0 95 22.5t36 51.5q0 24 -29.5 40.5t-87.5 16.5q-74 0 -121 -32l-59 61l86 180l90 -32l-57 -109q39 23 86 23q71 0 131.5 -39.5t60.5 -108.5q0 -66 -62.5 -118t-168.5 -52q-114 0 -248 90z" />
<glyph unicode="&#xb9;" horiz-adv-x="634" d="M41 1034q65 39 123 92t94 100.5t62.5 89.5t37.5 66l11 25h102v-1012h-96v817q-104 -156 -287 -264z" />
<glyph unicode="&#xba;" horiz-adv-x="958" d="M154 1061q0 68 21 132.5t60.5 117t103.5 84.5t142 32q103 0 178.5 -54.5t110.5 -135t35 -172.5q0 -68 -21 -132t-60 -116.5t-102 -84.5t-141 -32q-79 0 -143 31.5t-103 84t-60 115.5t-21 130zM190 514v92h588v-92h-588zM244 1061q0 -109 63 -191t174 -82 q109 0 171.5 83.5t62.5 193.5q0 111 -62.5 192.5t-171.5 81.5q-110 0 -173.5 -83.5t-63.5 -194.5z" />
<glyph unicode="&#xbb;" horiz-adv-x="817" d="M41 195l346 301l-346 307l68 67l389 -348v-55l-389 -340zM319 195l347 301l-347 307l68 67l389 -348v-55l-389 -340z" />
<glyph unicode="&#xbc;" horiz-adv-x="1558" d="M41 1034q65 39 123 92t94 100.5t62.5 89.5t37.5 66l11 25h102v-1012h-96v817q-104 -156 -287 -264zM440 8l488 1424l88 -37l-488 -1424zM719 164v78l512 768h96v-750h170v-96h-170v-164h-96v164h-512zM842 260h389v582z" />
<glyph unicode="&#xbd;" horiz-adv-x="1710" d="M41 1034q65 39 123 92t94 100.5t62.5 89.5t37.5 66l11 25h102v-1012h-96v817q-104 -156 -287 -264zM440 8l488 1424l88 -37l-488 -1424zM899 0q1 79 24.5 150t67.5 130.5t93.5 107t115.5 95.5l62 45q52 38 79.5 60t60.5 53t47.5 59t14.5 56q0 83 -66 131.5t-155 48.5 q-83 0 -148 -51t-75 -142l-96 7q16 134 107.5 208t211.5 74q82 0 153 -30t119 -94.5t48 -151.5q0 -44 -20.5 -86t-65 -86t-77.5 -70.5t-95 -73.5l-48 -34q-219 -160 -253 -310h608v-96h-713z" />
<glyph unicode="&#xbe;" horiz-adv-x="1755" d="M82 600q0 24 8 78l96 -16q-8 -54 -8 -62q0 -77 67.5 -117.5t162.5 -40.5q119 0 188.5 73t69.5 165q0 72 -52 125t-143 63h-111v97h95q84 13 130 54.5t46 102.5q0 78 -53.5 136.5t-145.5 58.5q-91 0 -152.5 -62.5t-76.5 -160.5l-99 16q24 137 109 220t219 83 q138 0 216.5 -86.5t78.5 -204.5q0 -132 -117 -200q72 -41 112 -104t40 -138q0 -60 -22.5 -118.5t-65 -107.5t-112 -79.5t-154.5 -30.5t-157.5 27t-120.5 86.5t-48 142.5zM637 8l487 1424l88 -37l-487 -1424zM915 164v78l512 768h97v-750h170v-96h-170v-164h-97v164h-512z M1038 260h389v582z" />
<glyph unicode="&#xbf;" horiz-adv-x="989" d="M82 -76q0 61 14 112t45.5 97.5t56 74t70.5 73.5q45 45 67.5 70.5t54 71t45.5 96t14 110.5v78h96v-78q0 -61 -13 -116t-29.5 -92.5t-49.5 -81t-54 -66t-61 -62.5q-41 -41 -60.5 -62.5t-47.5 -60.5t-40 -78.5t-12 -85.5q0 -112 91 -180t229 -68q89 0 167.5 34.5t136 110 t68.5 181.5l99 -4q-11 -102 -55 -184t-109.5 -132t-144 -76t-162.5 -26q-182 0 -299 94t-117 250zM395 922q0 44 28.5 73t72.5 29t73 -29t29 -73q0 -45 -28.5 -73t-73.5 -28t-73 28t-28 73z" />
<glyph unicode="&#xc0;" horiz-adv-x="1380" d="M20 0l560 1315q39 90 108 90h12q72 0 111 -90l549 -1315h-107l-194 459h-735q-117 -283 -195 -459h-109zM365 557h653l-313 750h-21q-59 -131 -319 -750zM498 1739l86 73l219 -278l-74 -64z" />
<glyph unicode="&#xc1;" horiz-adv-x="1380" d="M20 0l560 1315q39 90 108 90h12q72 0 111 -90l549 -1315h-107l-194 459h-735q-117 -283 -195 -459h-109zM365 557h653l-313 750h-21q-59 -131 -319 -750zM545 1526l221 278l84 -73l-229 -269z" />
<glyph unicode="&#xc2;" horiz-adv-x="1380" d="M20 0l560 1315q39 90 108 90h12q72 0 111 -90l549 -1315h-107l-194 459h-735q-117 -283 -195 -459h-109zM360 1534l297 287h62l299 -287l-68 -68l-262 252l-260 -252zM365 557h653l-313 750h-21q-59 -131 -319 -750z" />
<glyph unicode="&#xc3;" horiz-adv-x="1380" d="M20 0l560 1315q39 90 108 90h12q72 0 111 -90l549 -1315h-107l-194 459h-735q-117 -283 -195 -459h-109zM350 1587q102 129 209 129q51 0 139 -39t133 -39q56 0 117 101l82 -51q-95 -146 -199 -146q-48 0 -135.5 38t-136.5 38q-62 0 -133 -90zM365 557h653l-313 750h-21 q-59 -131 -319 -750z" />
<glyph unicode="&#xc4;" horiz-adv-x="1380" d="M20 0l560 1315q39 90 108 90h12q72 0 111 -90l549 -1315h-107l-194 459h-735q-117 -283 -195 -459h-109zM365 557h653l-313 750h-21q-59 -131 -319 -750zM438 1628q0 44 29.5 72.5t73.5 28.5t72 -28.5t28 -72.5t-28 -73t-72 -29t-73.5 29t-29.5 73zM793 1628 q0 44 29 72.5t73 28.5t72 -28.5t28 -72.5t-28 -73t-72 -29t-73 29t-29 73z" />
<glyph unicode="&#xc5;" horiz-adv-x="1380" d="M20 0l560 1315q39 90 108 90h12q72 0 111 -90l549 -1315h-107l-194 459h-735q-117 -283 -195 -459h-109zM365 557h653l-313 750h-21q-59 -131 -319 -750zM475 1679q0 92 63.5 155.5t157.5 63.5q92 0 155.5 -63.5t63.5 -155.5q0 -94 -63.5 -157.5t-155.5 -63.5 q-94 0 -157.5 63.5t-63.5 157.5zM571 1679q0 -53 36.5 -89t88.5 -36t87.5 36t35.5 89t-35.5 88t-87.5 35q-53 0 -89 -35.5t-36 -87.5z" />
<glyph unicode="&#xc6;" horiz-adv-x="1792" d="M20 0l560 1315q39 90 108 90h995v-98h-788v-484h735v-98h-735v-627h815v-98h-790q-66 0 -94.5 26t-28.5 78v355h-473q-117 -283 -195 -459h-109zM365 557h432v750h-113q-59 -131 -319 -750z" />
<glyph unicode="&#xc7;" horiz-adv-x="1357" d="M102 692q0 112 24.5 218.5t76 201.5t124.5 166t176.5 112.5t225.5 41.5q198 0 339.5 -114t203.5 -308l-92 -29q-51 162 -169 258t-282 96q-102 0 -189 -36t-149 -98.5t-106 -144.5t-65 -174.5t-21 -189.5t21 -189t64.5 -174t105 -143t148.5 -97t189 -36q168 0 288.5 90.5 t174.5 257.5l96 -30q-63 -197 -209.5 -306.5t-349.5 -109.5q-7 0 -20 1t-19 1l-43 -82q39 23 86 23q71 0 132 -39.5t61 -108.5q0 -66 -63 -118t-169 -52q-114 0 -248 90l60 78q110 -72 188 -72q59 0 95 22.5t36 51.5q0 24 -29 40.5t-87 16.5q-74 0 -121 -32l-60 61l64 133 q-119 26 -213.5 96.5t-153.5 169.5t-90 215.5t-31 241.5z" />
<glyph unicode="&#xc8;" horiz-adv-x="1179" d="M184 104v1196q0 52 28.5 78.5t94.5 26.5h764v-98h-788v-484h735v-98h-735v-627h815v-98h-791q-66 0 -94.5 26t-28.5 78zM442 1737l86 73l220 -278l-74 -64z" />
<glyph unicode="&#xc9;" horiz-adv-x="1179" d="M184 104v1196q0 52 28.5 78.5t94.5 26.5h764v-98h-788v-484h735v-98h-735v-627h815v-98h-791q-66 0 -94.5 26t-28.5 78zM500 1526l221 278l84 -73l-230 -269z" />
<glyph unicode="&#xca;" horiz-adv-x="1179" d="M184 104v1196q0 52 28.5 78.5t94.5 26.5h764v-98h-788v-484h735v-98h-735v-627h815v-98h-791q-66 0 -94.5 26t-28.5 78zM305 1532l297 287h62l299 -287l-68 -68l-262 252l-260 -252z" />
<glyph unicode="&#xcb;" horiz-adv-x="1179" d="M184 104v1196q0 52 28.5 78.5t94.5 26.5h764v-98h-788v-484h735v-98h-735v-627h815v-98h-791q-66 0 -94.5 26t-28.5 78zM350 1628q0 44 29.5 72.5t73.5 28.5t72 -28.5t28 -72.5t-28 -73t-72 -29t-73.5 29t-29.5 73zM705 1628q0 44 29 72.5t73 28.5t72 -28.5t28 -72.5 t-28 -73t-72 -29t-73 29t-29 73z" />
<glyph unicode="&#xcc;" horiz-adv-x="466" d="M55 1737l86 73l219 -278l-73 -64zM184 0v1405h99v-1405h-99z" />
<glyph unicode="&#xcd;" horiz-adv-x="466" d="M100 1526l222 278l84 -73l-230 -269zM184 0v1405h99v-1405h-99z" />
<glyph unicode="&#xce;" horiz-adv-x="466" d="M-98 1532l297 287h61l299 -287l-67 -68l-263 252l-260 -252zM184 0v1405h99v-1405h-99z" />
<glyph unicode="&#xcf;" horiz-adv-x="466" d="M-45 1649q0 44 29 72t73 28t72.5 -28t28.5 -72t-28.5 -73.5t-72.5 -29.5t-73 29.5t-29 73.5zM184 0v1405h99v-1405h-99zM309 1649q0 44 29 72t74 28q44 0 72 -28t28 -72q0 -45 -28 -74t-72 -29t-73.5 29.5t-29.5 73.5z" />
<glyph unicode="&#xd0;" horiz-adv-x="1378" d="M0 727v102h184v471q0 52 28.5 78.5t94.5 26.5h318q325 0 488 -179t163 -513q0 -335 -168 -524t-492 -189h-309q-66 0 -94.5 26t-28.5 78v623h-184zM283 98h333q276 0 419 163t143 452q0 288 -138 441t-415 153h-342v-478h284v-102h-284v-629z" />
<glyph unicode="&#xd1;" horiz-adv-x="1456" d="M184 0v1405h95l895 -1233v1233h98v-1405h-94l-895 1233v-1233h-99zM410 1556q103 130 208 130q51 0 139.5 -39t133.5 -39q57 0 117 100l82 -51q-95 -146 -199 -146q-48 0 -136 38t-137 38q-62 0 -133 -90z" />
<glyph unicode="&#xd2;" horiz-adv-x="1482" d="M102 690q0 93 18 183t53 173t90 153.5t124.5 122t160.5 81t195 29.5q123 0 228.5 -41.5t179.5 -112t126.5 -165t77.5 -200t25 -217.5t-25.5 -218.5t-78 -201.5t-127.5 -166.5t-181 -113t-231 -41.5q-123 0 -227.5 41t-178.5 111.5t-126.5 164.5t-77.5 200t-25 218z M201 690q0 -97 21 -189t65.5 -173.5t107 -142.5t150.5 -96.5t192 -35.5q131 0 237 55t172 146.5t101 205t35 236.5q0 121 -34.5 234t-100 204t-170.5 146t-234 55q-130 0 -235.5 -55t-171 -147t-100.5 -206t-35 -237zM604 1765l86 74l219 -278l-73 -64z" />
<glyph unicode="&#xd3;" horiz-adv-x="1482" d="M102 690q0 93 18 183t53 173t90 153.5t124.5 122t160.5 81t195 29.5q123 0 228.5 -41.5t179.5 -112t126.5 -165t77.5 -200t25 -217.5t-25.5 -218.5t-78 -201.5t-127.5 -166.5t-181 -113t-231 -41.5q-123 0 -227.5 41t-178.5 111.5t-126.5 164.5t-77.5 200t-25 218z M201 690q0 -97 21 -189t65.5 -173.5t107 -142.5t150.5 -96.5t192 -35.5q131 0 237 55t172 146.5t101 205t35 236.5q0 121 -34.5 234t-100 204t-170.5 146t-234 55q-130 0 -235.5 -55t-171 -147t-100.5 -206t-35 -237zM616 1554l222 279l84 -74l-230 -268z" />
<glyph unicode="&#xd4;" horiz-adv-x="1482" d="M102 690q0 93 18 183t53 173t90 153.5t124.5 122t160.5 81t195 29.5q123 0 228.5 -41.5t179.5 -112t126.5 -165t77.5 -200t25 -217.5t-25.5 -218.5t-78 -201.5t-127.5 -166.5t-181 -113t-231 -41.5q-123 0 -227.5 41t-178.5 111.5t-126.5 164.5t-77.5 200t-25 218z M201 690q0 -97 21 -189t65.5 -173.5t107 -142.5t150.5 -96.5t192 -35.5q131 0 237 55t172 146.5t101 205t35 236.5q0 121 -34.5 234t-100 204t-170.5 146t-234 55q-130 0 -235.5 -55t-171 -147t-100.5 -206t-35 -237zM426 1561l297 286h61l299 -286l-67 -68l-262 252 l-260 -252z" />
<glyph unicode="&#xd5;" horiz-adv-x="1482" d="M102 690q0 93 18 183t53 173t90 153.5t124.5 122t160.5 81t195 29.5q123 0 228.5 -41.5t179.5 -112t126.5 -165t77.5 -200t25 -217.5t-25.5 -218.5t-78 -201.5t-127.5 -166.5t-181 -113t-231 -41.5q-123 0 -227.5 41t-178.5 111.5t-126.5 164.5t-77.5 200t-25 218z M201 690q0 -97 21 -189t65.5 -173.5t107 -142.5t150.5 -96.5t192 -35.5q131 0 237 55t172 146.5t101 205t35 236.5q0 121 -34.5 234t-100 204t-170.5 146t-234 55q-130 0 -235.5 -55t-171 -147t-100.5 -206t-35 -237zM399 1616q102 129 209 129q51 0 139.5 -39t133.5 -39 q56 0 116 100l82 -51q-94 -145 -198 -145q-48 0 -136 38t-137 38q-62 0 -133 -91z" />
<glyph unicode="&#xd6;" horiz-adv-x="1482" d="M102 690q0 93 18 183t53 173t90 153.5t124.5 122t160.5 81t195 29.5q123 0 228.5 -41.5t179.5 -112t126.5 -165t77.5 -200t25 -217.5t-25.5 -218.5t-78 -201.5t-127.5 -166.5t-181 -113t-231 -41.5q-123 0 -227.5 41t-178.5 111.5t-126.5 164.5t-77.5 200t-25 218z M201 690q0 -97 21 -189t65.5 -173.5t107 -142.5t150.5 -96.5t192 -35.5q131 0 237 55t172 146.5t101 205t35 236.5q0 121 -34.5 234t-100 204t-170.5 146t-234 55q-130 0 -235.5 -55t-171 -147t-100.5 -206t-35 -237zM487 1657q0 44 29 72t74 28q44 0 72 -28t28 -72 q0 -45 -28 -74t-72 -29t-73.5 29.5t-29.5 73.5zM842 1657q0 44 29 72t73 28t72 -28t28 -72q0 -45 -28 -74t-72 -29t-73 29.5t-29 73.5z" />
<glyph unicode="&#xd7;" horiz-adv-x="1118" d="M82 272l410 420l-410 418l68 68l409 -416q12 13 174 176t236 240l67 -68l-409 -418l409 -420l-67 -67l-410 418q-163 -168 -409 -418z" />
<glyph unicode="&#xd8;" horiz-adv-x="1482" d="M102 690q0 93 18 183t53 173t90 153.5t124.5 122t160.5 81t195 29.5q95 0 197 -31l37 104l90 -30l-39 -111q113 -60 194 -167t119.5 -235t38.5 -266q0 -112 -25.5 -218.5t-78 -201.5t-127.5 -166.5t-181 -113t-231 -41.5q-89 0 -182 27l-53 -156l-88 31l53 157 q-175 85 -270 270.5t-95 405.5zM201 690q0 -188 77.5 -347t221.5 -234l409 1200q-80 26 -166 26q-130 0 -235.5 -55t-171 -147t-100.5 -206t-35 -237zM586 74q82 -21 151 -21q131 0 237 55t172 146.5t101 205t35 236.5q0 180 -74.5 336.5t-212.5 237.5z" />
<glyph unicode="&#xd9;" horiz-adv-x="1374" d="M174 516v889h98v-889q0 -110 35.5 -200t94.5 -145.5t132 -85.5t152 -30q80 0 153.5 30t132.5 85.5t94.5 145.5t35.5 200v889h98v-889q0 -135 -44 -244t-117.5 -176.5t-164 -103t-188.5 -35.5q-78 0 -151.5 22t-139 68t-115 111t-78 157t-28.5 201zM547 1737l86 73 l219 -278l-74 -64z" />
<glyph unicode="&#xda;" horiz-adv-x="1374" d="M174 516v889h98v-889q0 -110 35.5 -200t94.5 -145.5t132 -85.5t152 -30q80 0 153.5 30t132.5 85.5t94.5 145.5t35.5 200v889h98v-889q0 -135 -44 -244t-117.5 -176.5t-164 -103t-188.5 -35.5q-78 0 -151.5 22t-139 68t-115 111t-78 157t-28.5 201zM582 1526l221 278 l84 -73l-230 -269z" />
<glyph unicode="&#xdb;" horiz-adv-x="1374" d="M174 516v889h98v-889q0 -110 35.5 -200t94.5 -145.5t132 -85.5t152 -30q80 0 153.5 30t132.5 85.5t94.5 145.5t35.5 200v889h98v-889q0 -135 -44 -244t-117.5 -176.5t-164 -103t-188.5 -35.5q-78 0 -151.5 22t-139 68t-115 111t-78 157t-28.5 201zM352 1532l297 287h62 l299 -287l-68 -68l-262 252l-260 -252z" />
<glyph unicode="&#xdc;" horiz-adv-x="1374" d="M174 516v889h98v-889q0 -110 35.5 -200t94.5 -145.5t132 -85.5t152 -30q80 0 153.5 30t132.5 85.5t94.5 145.5t35.5 200v889h98v-889q0 -135 -44 -244t-117.5 -176.5t-164 -103t-188.5 -35.5q-78 0 -151.5 22t-139 68t-115 111t-78 157t-28.5 201zM418 1628q0 44 29 72.5 t73 28.5t72.5 -28.5t28.5 -72.5t-28.5 -73t-72.5 -29t-73 29t-29 73zM772 1628q0 44 29 72.5t73 28.5t72.5 -28.5t28.5 -72.5t-28.5 -73t-72.5 -29t-73 29t-29 73z" />
<glyph unicode="&#xdd;" horiz-adv-x="1265" d="M20 1376l82 51l521 -802h18l520 802l84 -51l-516 -794q-24 -35 -47 -45v-537h-98v535q-30 15 -49 47zM492 1528l221 278l84 -73l-230 -269z" />
<glyph unicode="&#xde;" horiz-adv-x="1187" d="M184 0v1405h99v-252h403q105 0 191.5 -39.5t139 -102t81 -133.5t28.5 -139q0 -71 -29.5 -144t-84 -136.5t-143.5 -103.5t-197 -40h-389v-315h-99zM283 414h389q85 0 155 30.5t112.5 79t65.5 104.5t23 111q0 52 -22 106.5t-63 102t-108.5 77.5t-148.5 30h-403v-641z" />
<glyph unicode="&#xdf;" horiz-adv-x="1093" d="M10 913v86l152 9v125q0 129 92 204.5t219 75.5q164 0 246 -80.5t82 -206.5q0 -95 -63.5 -212t-151.5 -195q54 -23 83.5 -35.5t73 -32t66.5 -32.5t55.5 -33t49 -36t38 -38.5t32 -45.5t20.5 -51.5t14 -60.5t4 -69q0 -146 -93 -223.5t-231 -77.5q-163 0 -317 112l59 76 q134 -92 258 -92q97 0 162.5 53t65.5 152q0 51 -13.5 92.5t-44.5 76t-67 61t-98 54t-118 48t-145 49.5v69q101 62 181.5 178.5t80.5 212.5q0 85 -56 138t-171 53q-88 0 -152.5 -49.5t-64.5 -134.5v-1133h-96v913h-152z" />
<glyph unicode="&#xe0;" horiz-adv-x="1099" d="M82 287q0 67 19.5 119.5t51.5 89.5t86.5 63t110.5 41.5t139 24.5t156.5 12t177.5 4q-9 150 -77 222.5t-216 72.5q-101 0 -180.5 -46t-118.5 -124l-90 33q53 107 156 170t233 63q207 0 298.5 -111t91.5 -327v-358q0 -69 16 -136t31 -100h-103q-15 40 -28 119.5t-13 173.5 q-59 -153 -174 -243.5t-225 -90.5q-141 0 -241.5 92t-100.5 236zM180 287q0 -101 71.5 -166.5t172.5 -65.5q121 0 234.5 130.5t158.5 359.5q-89 -1 -152.5 -3.5t-134.5 -9t-119.5 -18t-95.5 -30.5t-74.5 -45.5t-44 -64.5t-16.5 -87zM350 1364l86 74l219 -279l-73 -63z" />
<glyph unicode="&#xe1;" horiz-adv-x="1099" d="M82 287q0 67 19.5 119.5t51.5 89.5t86.5 63t110.5 41.5t139 24.5t156.5 12t177.5 4q-9 150 -77 222.5t-216 72.5q-101 0 -180.5 -46t-118.5 -124l-90 33q53 107 156 170t233 63q207 0 298.5 -111t91.5 -327v-358q0 -69 16 -136t31 -100h-103q-15 40 -28 119.5t-13 173.5 q-59 -153 -174 -243.5t-225 -90.5q-141 0 -241.5 92t-100.5 236zM180 287q0 -101 71.5 -166.5t172.5 -65.5q121 0 234.5 130.5t158.5 359.5q-89 -1 -152.5 -3.5t-134.5 -9t-119.5 -18t-95.5 -30.5t-74.5 -45.5t-44 -64.5t-16.5 -87zM424 1153l221 279l84 -74l-229 -268z" />
<glyph unicode="&#xe2;" horiz-adv-x="1099" d="M82 287q0 67 19.5 119.5t51.5 89.5t86.5 63t110.5 41.5t139 24.5t156.5 12t177.5 4q-9 150 -77 222.5t-216 72.5q-101 0 -180.5 -46t-118.5 -124l-90 33q53 107 156 170t233 63q207 0 298.5 -111t91.5 -327v-358q0 -69 16 -136t31 -100h-103q-15 40 -28 119.5t-13 173.5 q-59 -153 -174 -243.5t-225 -90.5q-141 0 -241.5 92t-100.5 236zM180 287q0 -101 71.5 -166.5t172.5 -65.5q121 0 234.5 130.5t158.5 359.5q-89 -1 -152.5 -3.5t-134.5 -9t-119.5 -18t-95.5 -30.5t-74.5 -45.5t-44 -64.5t-16.5 -87zM209 1159l297 287h61l299 -287l-67 -67 l-262 251l-261 -251z" />
<glyph unicode="&#xe3;" horiz-adv-x="1099" d="M82 287q0 67 19.5 119.5t51.5 89.5t86.5 63t110.5 41.5t139 24.5t156.5 12t177.5 4q-9 150 -77 222.5t-216 72.5q-101 0 -180.5 -46t-118.5 -124l-90 33q53 107 156 170t233 63q207 0 298.5 -111t91.5 -327v-358q0 -69 16 -136t31 -100h-103q-15 40 -28 119.5t-13 173.5 q-59 -153 -174 -243.5t-225 -90.5q-141 0 -241.5 92t-100.5 236zM180 287q0 -101 71.5 -166.5t172.5 -65.5q121 0 234.5 130.5t158.5 359.5q-89 -1 -152.5 -3.5t-134.5 -9t-119.5 -18t-95.5 -30.5t-74.5 -45.5t-44 -64.5t-16.5 -87zM195 1233q102 129 208 129 q51 0 139.5 -39t133.5 -39q57 0 117 100l81 -51q-94 -145 -198 -145q-48 0 -136 38t-137 38q-62 0 -133 -90z" />
<glyph unicode="&#xe4;" horiz-adv-x="1099" d="M82 287q0 67 19.5 119.5t51.5 89.5t86.5 63t110.5 41.5t139 24.5t156.5 12t177.5 4q-9 150 -77 222.5t-216 72.5q-101 0 -180.5 -46t-118.5 -124l-90 33q53 107 156 170t233 63q207 0 298.5 -111t91.5 -327v-358q0 -69 16 -136t31 -100h-103q-15 40 -28 119.5t-13 173.5 q-59 -153 -174 -243.5t-225 -90.5q-141 0 -241.5 92t-100.5 236zM180 287q0 -101 71.5 -166.5t172.5 -65.5q121 0 234.5 130.5t158.5 359.5q-89 -1 -152.5 -3.5t-134.5 -9t-119.5 -18t-95.5 -30.5t-74.5 -45.5t-44 -64.5t-16.5 -87zM266 1276q0 44 29 72t74 28q44 0 72 -28 t28 -72t-28 -73t-72 -29t-73.5 29t-29.5 73zM621 1276q0 44 29 72t73 28t72 -28t28 -72t-28 -73t-72 -29t-73 29t-29 73z" />
<glyph unicode="&#xe5;" horiz-adv-x="1099" d="M82 287q0 67 19.5 119.5t51.5 89.5t86.5 63t110.5 41.5t139 24.5t156.5 12t177.5 4q-9 150 -77 222.5t-216 72.5q-101 0 -180.5 -46t-118.5 -124l-90 33q53 107 156 170t233 63q207 0 298.5 -111t91.5 -327v-358q0 -69 16 -136t31 -100h-103q-15 40 -28 119.5t-13 173.5 q-59 -153 -174 -243.5t-225 -90.5q-141 0 -241.5 92t-100.5 236zM180 287q0 -101 71.5 -166.5t172.5 -65.5q121 0 234.5 130.5t158.5 359.5q-89 -1 -152.5 -3.5t-134.5 -9t-119.5 -18t-95.5 -30.5t-74.5 -45.5t-44 -64.5t-16.5 -87zM311 1335q0 92 63.5 155.5t157.5 63.5 q92 0 156 -63.5t64 -155.5q0 -93 -64 -157t-156 -64q-94 0 -157.5 63.5t-63.5 157.5zM408 1335q0 -53 36 -89t88 -36t87.5 36t35.5 89t-35.5 88t-87.5 35q-53 0 -88.5 -35.5t-35.5 -87.5z" />
<glyph unicode="&#xe6;" horiz-adv-x="1826" d="M82 287q0 67 19.5 119.5t51.5 89.5t86.5 63t110.5 41.5t139 24.5t156.5 12t177.5 4q-9 150 -77 222.5t-216 72.5q-101 0 -180.5 -46t-118.5 -124l-90 33q53 107 156 170t233 63q295 0 365 -241q57 111 158.5 176t242.5 65q111 0 197.5 -37t141 -102.5t82.5 -151 t28 -186.5q0 -50 -27 -76t-92 -26h-696q12 -186 112 -292t263 -106q100 0 179 43t126 123l82 -49q-67 -103 -165.5 -158t-221.5 -55q-185 0 -304 110.5t-157 280.5q-36 -104 -90 -183t-112 -122.5t-113 -64.5t-105 -21q-141 0 -241.5 92t-100.5 236zM180 287 q0 -101 71.5 -166.5t172.5 -65.5q121 0 234.5 130.5t158.5 359.5q-89 -1 -152.5 -3.5t-134.5 -9t-119.5 -18t-95.5 -30.5t-74.5 -45.5t-44 -64.5t-16.5 -87zM930 549h719q0 108 -38 194t-119.5 139.5t-195.5 53.5q-156 0 -254 -104.5t-112 -282.5z" />
<glyph unicode="&#xe7;" horiz-adv-x="1007" d="M82 496q0 102 30 196.5t86 171t146 122.5t201 46q118 0 218 -60.5t163 -164.5l-88 -47q-47 82 -125 129t-168 47q-88 0 -159.5 -37.5t-115 -100.5t-67 -140.5t-23.5 -161.5q0 -85 23.5 -162.5t67 -140.5t115 -100.5t159.5 -37.5q187 0 297 166l82 -49 q-66 -103 -163.5 -158t-215.5 -55h-8l-43 -84q39 23 86 23q71 0 131.5 -39.5t60.5 -108.5q0 -66 -62.5 -118t-168.5 -52q-114 0 -248 90l59 78q110 -72 189 -72q59 0 95 22.5t36 51.5q0 24 -29.5 40.5t-87.5 16.5q-74 0 -121 -32l-59 61l63 135q-87 19 -156 70t-112 123 t-65.5 156.5t-22.5 175.5z" />
<glyph unicode="&#xe8;" horiz-adv-x="1081" d="M82 502q0 81 18 157.5t56.5 144t93 118.5t132 80.5t169.5 29.5q111 0 197.5 -37t140.5 -102.5t82 -151t28 -186.5q0 -50 -27 -76t-91 -26h-697q12 -186 112 -292t263 -106q100 0 179 43t126 123l82 -49q-67 -103 -165.5 -158t-221.5 -55q-115 0 -208 46.5t-150.5 124 t-88 173.5t-30.5 199zM184 549h719q0 167 -91.5 277t-260.5 110q-156 0 -254.5 -104.5t-112.5 -282.5zM406 1364l86 74l219 -279l-74 -63z" />
<glyph unicode="&#xe9;" horiz-adv-x="1081" d="M82 502q0 81 18 157.5t56.5 144t93 118.5t132 80.5t169.5 29.5q111 0 197.5 -37t140.5 -102.5t82 -151t28 -186.5q0 -50 -27 -76t-91 -26h-697q12 -186 112 -292t263 -106q100 0 179 43t126 123l82 -49q-67 -103 -165.5 -158t-221.5 -55q-115 0 -208 46.5t-150.5 124 t-88 173.5t-30.5 199zM184 549h719q0 167 -91.5 277t-260.5 110q-156 0 -254.5 -104.5t-112.5 -282.5zM420 1153l221 279l84 -74l-229 -268z" />
<glyph unicode="&#xea;" horiz-adv-x="1081" d="M82 502q0 81 18 157.5t56.5 144t93 118.5t132 80.5t169.5 29.5q111 0 197.5 -37t140.5 -102.5t82 -151t28 -186.5q0 -50 -27 -76t-91 -26h-697q12 -186 112 -292t263 -106q100 0 179 43t126 123l82 -49q-67 -103 -165.5 -158t-221.5 -55q-115 0 -208 46.5t-150.5 124 t-88 173.5t-30.5 199zM184 549h719q0 167 -91.5 277t-260.5 110q-156 0 -254.5 -104.5t-112.5 -282.5zM225 1159l297 287h62l299 -287l-68 -67l-262 251l-260 -251z" />
<glyph unicode="&#xeb;" horiz-adv-x="1081" d="M82 502q0 81 18 157.5t56.5 144t93 118.5t132 80.5t169.5 29.5q111 0 197.5 -37t140.5 -102.5t82 -151t28 -186.5q0 -50 -27 -76t-91 -26h-697q12 -186 112 -292t263 -106q100 0 179 43t126 123l82 -49q-67 -103 -165.5 -158t-221.5 -55q-115 0 -208 46.5t-150.5 124 t-88 173.5t-30.5 199zM184 549h719q0 167 -91.5 277t-260.5 110q-156 0 -254.5 -104.5t-112.5 -282.5zM279 1276q0 44 29 72t73 28t72 -28t28 -72t-28 -73t-72 -29t-73 29t-29 73zM633 1276q0 44 29 72t73 28t72.5 -28t28.5 -72t-28.5 -73t-72.5 -29t-73 29t-29 73z" />
<glyph unicode="&#xec;" horiz-adv-x="421" d="M59 1341l86 74l220 -278l-74 -64zM162 236v772h96v-772q0 -69 16 -136t31 -100h-102q-41 110 -41 236z" />
<glyph unicode="&#xed;" horiz-adv-x="421" d="M88 1130l221 279l84 -74l-229 -268zM162 236v772h96v-772q0 -69 16 -136t31 -100h-102q-41 110 -41 236z" />
<glyph unicode="&#xee;" horiz-adv-x="421" d="M-117 1137l297 286h62l299 -286l-68 -68l-262 252l-260 -252zM162 236v772h96v-772q0 -69 16 -136t31 -100h-102q-41 110 -41 236z" />
<glyph unicode="&#xef;" horiz-adv-x="421" d="M-70 1253q0 44 29.5 72.5t73.5 28.5t72 -28.5t28 -72.5t-28 -73t-72 -29t-73.5 29t-29.5 73zM162 236v772h96v-772q0 -69 16 -136t31 -100h-102q-41 110 -41 236zM285 1253q0 44 29 72.5t73 28.5t72 -28.5t28 -72.5t-28 -73t-72 -29t-73 29t-29 73z" />
<glyph unicode="&#xf0;" horiz-adv-x="1142" d="M102 489q0 128 36 232t98 169.5t140.5 100.5t166.5 35q222 0 323 -145q-17 74 -67.5 168.5t-102.5 164.5q-5 -3 -92.5 -49.5t-126.5 -66.5l-45 88l203 104q-43 51 -127 117l67 70q93 -80 150 -142l195 101l47 -88l-181 -93q105 -143 159 -322t54 -372q0 -96 -15 -181 t-50 -162.5t-87 -133t-131 -88.5t-177 -33q-84 0 -162.5 38t-139.5 105t-98 167t-37 216zM199 489q0 -189 102 -309.5t238 -120.5q78 0 140.5 27.5t103 74t68 111.5t39 136.5t11.5 152.5q0 105 -12 176q-73 95 -164 144t-182 49q-144 0 -244 -117.5t-100 -323.5z" />
<glyph unicode="&#xf1;" horiz-adv-x="1126" d="M113 981l80 31q39 -72 57 -152q79 85 172 128.5t184 43.5q76 0 142 -25t118 -73.5t81.5 -128.5t29.5 -182v-387q0 -69 16 -136t31 -100h-102q-41 110 -41 236v387q0 156 -77 233.5t-198 77.5q-92 0 -183.5 -54t-164.5 -165v-715h-98v752q0 53 -12 110t-24 88zM231 1233 q102 129 209 129q51 0 139.5 -39t133.5 -39q56 0 116 100l82 -51q-94 -145 -198 -145q-48 0 -136 38t-137 38q-62 0 -133 -90z" />
<glyph unicode="&#xf2;" d="M82 496q0 103 30 198t86.5 171t147 121.5t203.5 45.5q89 0 164.5 -29.5t129 -80.5t91.5 -119t56 -145t18 -158q0 -103 -30 -198.5t-85.5 -173t-145.5 -124.5t-200 -47q-112 0 -202.5 46t-146.5 122.5t-86 172t-30 198.5zM178 496q0 -84 24 -162t68.5 -141t116.5 -100.5 t160 -37.5q69 0 128.5 25t102 68t72.5 100t44.5 121t14.5 131q0 84 -23 160.5t-66.5 138.5t-113.5 98.5t-157 36.5q-89 0 -161 -37.5t-117 -100t-69 -139.5t-24 -161zM397 1364l86 74l219 -279l-73 -63z" />
<glyph unicode="&#xf3;" d="M82 496q0 103 30 198t86.5 171t147 121.5t203.5 45.5q89 0 164.5 -29.5t129 -80.5t91.5 -119t56 -145t18 -158q0 -103 -30 -198.5t-85.5 -173t-145.5 -124.5t-200 -47q-112 0 -202.5 46t-146.5 122.5t-86 172t-30 198.5zM178 496q0 -84 24 -162t68.5 -141t116.5 -100.5 t160 -37.5q69 0 128.5 25t102 68t72.5 100t44.5 121t14.5 131q0 84 -23 160.5t-66.5 138.5t-113.5 98.5t-157 36.5q-89 0 -161 -37.5t-117 -100t-69 -139.5t-24 -161zM391 1153l221 279l84 -74l-229 -268z" />
<glyph unicode="&#xf4;" d="M82 496q0 103 30 198t86.5 171t147 121.5t203.5 45.5q89 0 164.5 -29.5t129 -80.5t91.5 -119t56 -145t18 -158q0 -103 -30 -198.5t-85.5 -173t-145.5 -124.5t-200 -47q-112 0 -202.5 46t-146.5 122.5t-86 172t-30 198.5zM178 496q0 -84 24 -162t68.5 -141t116.5 -100.5 t160 -37.5q69 0 128.5 25t102 68t72.5 100t44.5 121t14.5 131q0 84 -23 160.5t-66.5 138.5t-113.5 98.5t-157 36.5q-89 0 -161 -37.5t-117 -100t-69 -139.5t-24 -161zM219 1159l297 287h62l299 -287l-68 -67l-262 251l-260 -251z" />
<glyph unicode="&#xf5;" d="M82 496q0 103 30 198t86.5 171t147 121.5t203.5 45.5q89 0 164.5 -29.5t129 -80.5t91.5 -119t56 -145t18 -158q0 -103 -30 -198.5t-85.5 -173t-145.5 -124.5t-200 -47q-112 0 -202.5 46t-146.5 122.5t-86 172t-30 198.5zM178 496q0 -84 24 -162t68.5 -141t116.5 -100.5 t160 -37.5q69 0 128.5 25t102 68t72.5 100t44.5 121t14.5 131q0 84 -23 160.5t-66.5 138.5t-113.5 98.5t-157 36.5q-89 0 -161 -37.5t-117 -100t-69 -139.5t-24 -161zM203 1233q102 129 209 129q51 0 139 -39t133 -39q57 0 117 100l82 -51q-94 -145 -199 -145 q-48 0 -135.5 38t-136.5 38q-62 0 -133 -90z" />
<glyph unicode="&#xf6;" d="M82 496q0 103 30 198t86.5 171t147 121.5t203.5 45.5q89 0 164.5 -29.5t129 -80.5t91.5 -119t56 -145t18 -158q0 -103 -30 -198.5t-85.5 -173t-145.5 -124.5t-200 -47q-112 0 -202.5 46t-146.5 122.5t-86 172t-30 198.5zM178 496q0 -84 24 -162t68.5 -141t116.5 -100.5 t160 -37.5q69 0 128.5 25t102 68t72.5 100t44.5 121t14.5 131q0 84 -23 160.5t-66.5 138.5t-113.5 98.5t-157 36.5q-89 0 -161 -37.5t-117 -100t-69 -139.5t-24 -161zM262 1276q0 44 29 72t74 28q44 0 72 -28t28 -72t-28 -73t-72 -29t-73.5 29t-29.5 73zM616 1276 q0 44 29 72t74 28q44 0 72 -28t28 -72t-28 -73t-72 -29t-73.5 29t-29.5 73z" />
<glyph unicode="&#xf7;" horiz-adv-x="1058" d="M80 674v102h895v-102h-895zM420 457q0 45 28.5 72.5t73.5 27.5t73 -27.5t28 -72.5q0 -44 -28.5 -73.5t-72.5 -29.5t-73 29.5t-29 73.5zM422 993q0 45 28.5 73t73.5 28t73 -28t28 -73q0 -44 -28.5 -73t-72.5 -29t-73 29t-29 73z" />
<glyph unicode="&#xf8;" d="M82 496q0 103 30 198t86.5 171t147 121.5t203.5 45.5q62 0 121 -16l49 139l88 -31l-49 -143q120 -64 185 -195.5t65 -285.5q0 -103 -30 -198.5t-85.5 -173t-145.5 -124.5t-200 -47q-69 0 -137 20l-50 -147l-88 31l52 151q-117 68 -179.5 199t-62.5 285zM178 496 q0 -122 46 -225.5t134 -161.5l281 813q-43 12 -90 12q-89 0 -161 -37.5t-117 -100t-69 -139.5t-24 -161zM442 70q62 -15 105 -15q69 0 128.5 25t102 68t72.5 100t44.5 121t14.5 131q0 122 -47.5 227t-136.5 160z" />
<glyph unicode="&#xf9;" horiz-adv-x="1110" d="M133 387v621h96v-621q0 -158 78.5 -246t196.5 -88q93 0 185 54.5t165 164.5v736h96v-772q0 -69 16 -136t31 -100h-102q-29 74 -35 147q-77 -95 -170 -142.5t-186 -47.5q-157 0 -264 114t-107 316zM381 1341l86 74l219 -278l-74 -64z" />
<glyph unicode="&#xfa;" horiz-adv-x="1110" d="M133 387v621h96v-621q0 -158 78.5 -246t196.5 -88q93 0 185 54.5t165 164.5v736h96v-772q0 -69 16 -136t31 -100h-102q-29 74 -35 147q-77 -95 -170 -142.5t-186 -47.5q-157 0 -264 114t-107 316zM440 1130l222 279l83 -74l-229 -268z" />
<glyph unicode="&#xfb;" horiz-adv-x="1110" d="M133 387v621h96v-621q0 -158 78.5 -246t196.5 -88q93 0 185 54.5t165 164.5v736h96v-772q0 -69 16 -136t31 -100h-102q-29 74 -35 147q-77 -95 -170 -142.5t-186 -47.5q-157 0 -264 114t-107 316zM207 1137l297 286h61l299 -286l-67 -68l-262 252l-261 -252z" />
<glyph unicode="&#xfc;" horiz-adv-x="1110" d="M133 387v621h96v-621q0 -158 78.5 -246t196.5 -88q93 0 185 54.5t165 164.5v736h96v-772q0 -69 16 -136t31 -100h-102q-29 74 -35 147q-77 -95 -170 -142.5t-186 -47.5q-157 0 -264 114t-107 316zM266 1253q0 44 29.5 72.5t73.5 28.5t72 -28.5t28 -72.5t-28 -73t-72 -29 t-73.5 29t-29.5 73zM621 1253q0 44 29 72.5t73 28.5t72 -28.5t28 -72.5t-28 -73t-72 -29t-73 29t-29 73z" />
<glyph unicode="&#xfd;" horiz-adv-x="980" d="M10 979l90 35l418 -914l363 916l90 -35l-424 -1075q-50 -128 -124 -193t-192 -65q-51 0 -186 33l29 94q108 -31 157 -31q81 0 134 50.5t92 148.5l22 59q-26 16 -47 59q-115 250 -209.5 456.5t-139.5 305t-73 156.5zM360 1130l222 279l84 -74l-230 -268z" />
<glyph unicode="&#xfe;" horiz-adv-x="1079" d="M113 -379v1784h98v-545q74 81 165 123.5t179 42.5q107 0 193.5 -45.5t139.5 -121.5t81 -169.5t28 -195.5q0 -81 -17 -157.5t-52.5 -144.5t-86.5 -119t-123.5 -80.5t-158.5 -29.5q-219 0 -348 246v-588h-98zM211 424q54 -183 147.5 -274t200.5 -91t186 64.5t116.5 161.5 t37.5 209t-38 209.5t-118 162t-188 64.5q-86 0 -176 -49.5t-168 -143.5v-313z" />
<glyph unicode="&#xff;" horiz-adv-x="980" d="M10 979l90 35l418 -914l363 916l90 -35l-424 -1075q-50 -128 -124 -193t-192 -65q-51 0 -186 33l29 94q108 -31 157 -31q81 0 134 50.5t92 148.5l22 59q-26 16 -47 59q-115 250 -209.5 456.5t-139.5 305t-73 156.5zM223 1253q0 44 29.5 72.5t73.5 28.5t72 -28.5t28 -72.5 t-28 -73t-72 -29t-73.5 29t-29.5 73zM578 1253q0 44 29 72.5t73 28.5t72 -28.5t28 -72.5t-28 -73t-72 -29t-73 29t-29 73z" />
<glyph unicode="&#x152;" horiz-adv-x="2019" d="M102 690q0 93 18 183t53 173t90 153.5t124.5 122t160.5 81t195 29.5q165 0 289 -80q22 53 115 53h764v-98h-789v-484h736v-98h-736v-627h815v-98h-790q-82 0 -109 41q-122 -86 -301 -86q-123 0 -227.5 41t-178.5 111.5t-126.5 164.5t-77.5 200t-25 218zM201 690 q0 -97 21 -189t65.5 -173.5t107 -142.5t150.5 -96.5t192 -35.5q160 0 287 84v1114q-124 84 -281 84q-130 0 -235.5 -55t-171 -147t-100.5 -206t-35 -237z" />
<glyph unicode="&#x153;" horiz-adv-x="1933" d="M82 496q0 103 30 198t86.5 171t147 121.5t203.5 45.5q157 0 264.5 -85.5t157.5 -225.5q49 139 159.5 225t272.5 86q111 0 197.5 -37t140.5 -102.5t82 -151t28 -186.5q0 -50 -27 -76t-91 -26h-697q12 -186 112 -292t263 -106q100 0 179 43t126 123l82 -49 q-67 -103 -165.5 -158t-221.5 -55q-164 0 -277 89t-163 231q-49 -143 -158 -232.5t-266 -89.5q-112 0 -202.5 46t-146.5 122.5t-86 172t-30 198.5zM178 496q0 -84 24 -162t68.5 -141t116.5 -100.5t160 -37.5q69 0 128.5 25t102 68t72.5 100t44.5 121t14.5 131 q0 84 -23 160.5t-66.5 138.5t-113.5 98.5t-157 36.5q-89 0 -161 -37.5t-117 -100t-69 -139.5t-24 -161zM1036 549h719q0 167 -91.5 277t-260.5 110q-156 0 -254.5 -104.5t-112.5 -282.5z" />
<glyph unicode="&#x178;" horiz-adv-x="1265" d="M20 1376l82 51l521 -802h18l520 802l84 -51l-516 -794q-24 -35 -47 -45v-537h-98v535q-30 15 -49 47zM358 1628q0 44 29.5 72.5t73.5 28.5t72 -28.5t28 -72.5t-28 -73t-72 -29t-73.5 29t-29.5 73zM713 1628q0 44 29 72.5t73 28.5t72 -28.5t28 -72.5t-28 -73t-72 -29 t-73 29t-29 73z" />
<glyph unicode="&#x2c6;" horiz-adv-x="815" d="M74 1137l297 286h61l299 -286l-67 -68l-263 252l-260 -252z" />
<glyph unicode="&#x2dc;" horiz-adv-x="884" d="M102 1239q102 129 209 129q51 0 139.5 -39t133.5 -39q55 0 116 101l82 -52q-94 -145 -198 -145q-48 0 -136 38t-137 38q-62 0 -133 -90z" />
<glyph unicode="&#x2000;" horiz-adv-x="949" />
<glyph unicode="&#x2001;" horiz-adv-x="1898" />
<glyph unicode="&#x2002;" horiz-adv-x="949" />
<glyph unicode="&#x2003;" horiz-adv-x="1898" />
<glyph unicode="&#x2004;" horiz-adv-x="632" />
<glyph unicode="&#x2005;" horiz-adv-x="474" />
<glyph unicode="&#x2006;" horiz-adv-x="316" />
<glyph unicode="&#x2007;" horiz-adv-x="316" />
<glyph unicode="&#x2008;" horiz-adv-x="237" />
<glyph unicode="&#x2009;" horiz-adv-x="379" />
<glyph unicode="&#x200a;" horiz-adv-x="105" />
<glyph unicode="&#x2010;" horiz-adv-x="985" d="M82 449v102h821v-102h-821z" />
<glyph unicode="&#x2011;" horiz-adv-x="985" d="M82 449v102h821v-102h-821z" />
<glyph unicode="&#x2012;" horiz-adv-x="985" d="M82 449v102h821v-102h-821z" />
<glyph unicode="&#x2013;" d="M104 545v102h875v-102h-875z" />
<glyph unicode="&#x2014;" horiz-adv-x="1619" d="M104 545v102h1387v-102h-1387z" />
<glyph unicode="&#x2018;" horiz-adv-x="352" d="M68 1137q0 81 54.5 153.5t141.5 114.5l35 -86q-28 -14 -39.5 -20.5t-33.5 -19.5t-35.5 -25.5t-22.5 -26.5q2 0 7 1t7 1q42 0 67 -30.5t25 -70.5q0 -42 -27.5 -72t-78.5 -30q-52 0 -76 30.5t-24 80.5z" />
<glyph unicode="&#x2019;" horiz-adv-x="352" d="M45 1112q28 14 39.5 20.5t33.5 19.5t35.5 25.5t22.5 26.5q-2 0 -7 -1t-7 -1q-42 0 -67 30.5t-25 70.5q0 42 27.5 72t78.5 30q52 0 76 -30.5t24 -80.5q0 -81 -54.5 -153.5t-141.5 -114.5z" />
<glyph unicode="&#x201a;" horiz-adv-x="456" d="M102 -102q28 14 39.5 20.5t33.5 19.5t35.5 25.5t22.5 26.5q-2 0 -7 -1t-7 -1q-42 0 -67 30t-25 70q0 42 27.5 72t78.5 30q52 0 76.5 -30t24.5 -80q0 -81 -55 -153t-142 -115z" />
<glyph unicode="&#x201c;" horiz-adv-x="602" d="M68 1137q0 81 54.5 153.5t141.5 114.5l35 -86q-28 -14 -39.5 -20.5t-33.5 -19.5t-35.5 -25.5t-22.5 -26.5q2 0 7 1t7 1q42 0 67 -30.5t25 -70.5q0 -42 -27.5 -72t-78.5 -30q-52 0 -76 30.5t-24 80.5zM317 1137q0 81 55 153t142 115l35 -86q-28 -14 -39.5 -20.5 t-33.5 -19.5t-35.5 -25.5t-22.5 -26.5q2 0 7 1t7 1q42 0 67 -30.5t25 -70.5q0 -42 -27.5 -72t-78.5 -30q-52 0 -76.5 30.5t-24.5 80.5z" />
<glyph unicode="&#x201d;" horiz-adv-x="602" d="M45 1112q28 14 39.5 20.5t33.5 19.5t35.5 25.5t22.5 26.5q-2 0 -7 -1t-7 -1q-42 0 -67 30.5t-25 70.5q0 42 27.5 72t78.5 30q52 0 76 -30.5t24 -80.5q0 -81 -54.5 -153.5t-141.5 -114.5zM295 1112q28 14 39.5 20.5t33.5 19.5t35.5 25.5t22.5 26.5q-2 0 -7 -1t-7 -1 q-42 0 -67.5 30.5t-25.5 70.5q0 42 28 72t79 30q52 0 76 -30.5t24 -80.5q0 -81 -54.5 -153.5t-141.5 -114.5z" />
<glyph unicode="&#x201e;" horiz-adv-x="706" d="M102 -104q28 14 39.5 20.5t33.5 19.5t35.5 25.5t22.5 26.5q-2 0 -7 -1t-7 -1q-42 0 -67 30t-25 70q0 42 27.5 72t78.5 30q52 0 76.5 -30t24.5 -80q0 -81 -55 -153t-142 -115zM352 -104q28 14 39.5 20.5t33.5 19.5t35.5 25.5t22.5 26.5q-2 0 -7 -1t-7 -1q-42 0 -67 30 t-25 70q0 42 27.5 72t78.5 30q52 0 76.5 -30t24.5 -80q0 -81 -55 -153t-142 -115z" />
<glyph unicode="&#x2022;" horiz-adv-x="548" d="M102 580q0 70 50.5 121t121.5 51q70 0 121 -51.5t51 -120.5q0 -72 -50.5 -123t-121.5 -51q-72 0 -122 51t-50 123z" />
<glyph unicode="&#x2026;" horiz-adv-x="1118" d="M123 90q0 45 28.5 72.5t73.5 27.5t73 -27.5t28 -72.5q0 -44 -28.5 -73t-72.5 -29t-73 29t-29 73zM453 90q0 45 28.5 72.5t73.5 27.5t72.5 -27.5t27.5 -72.5q0 -44 -28 -73t-72 -29t-73 29t-29 73zM793 90q0 45 28.5 72.5t73.5 27.5t72.5 -27.5t27.5 -72.5q0 -44 -28 -73 t-72 -29t-73 29t-29 73z" />
<glyph unicode="&#x202f;" horiz-adv-x="379" />
<glyph unicode="&#x2039;" horiz-adv-x="538" d="M41 475v55l389 340l68 -67l-346 -301l346 -307l-68 -68z" />
<glyph unicode="&#x203a;" horiz-adv-x="538" d="M41 195l346 307l-346 301l68 67l389 -340v-55l-389 -348z" />
<glyph unicode="&#x205f;" horiz-adv-x="474" />
<glyph unicode="&#x20ac;" horiz-adv-x="1445" d="M61 492v96h158q-4 74 -4 121q0 52 2 77h-156v97h168q21 112 67.5 209.5t116 175t168 122t214.5 44.5q196 0 335 -112.5t199 -303.5l-92 -29q-48 159 -164 253.5t-278 94.5q-94 0 -173.5 -35.5t-136 -98.5t-94.5 -144t-57 -176h571v-97h-588q-2 -27 -2 -81q0 -82 4 -117 h586v-96h-567q41 -195 158.5 -318t298.5 -123q164 0 282 89.5t172 254.5l94 -30q-62 -194 -205 -302t-343 -108q-91 0 -172.5 28.5t-144.5 78t-112.5 117.5t-82.5 147t-50 166h-172z" />
<glyph unicode="&#x2122;" horiz-adv-x="1767" d="M31 1307v98h669v-98h-286v-748h-97v748h-286zM772 559v846h100l328 -709l332 709h102v-846h-96v627l-293 -627h-92l-283 619v-619h-98z" />
<glyph unicode="&#x25fc;" horiz-adv-x="1024" d="M0 0v1024h1024v-1024h-1024z" />
</font>
</defs>
</svg>
